<svg width="21" height="21" viewBox="0 0 21 21" fill="none" xmlns="http://www.w3.org/2000/svg">
<g clip-path="url(#clip0_1_45325)">
<path d="M20.6406 10.6121C20.6406 10.1232 20.474 9.71209 20.1406 9.37876C19.8073 9.04542 19.3962 8.87876 18.9073 8.87876H3.77396V3.47876C3.77396 3.03431 3.92951 2.65653 4.24063 2.34542C4.46285 2.1232 4.7184 1.98987 5.00729 1.94542C5.29618 1.90098 5.59618 1.9232 5.90729 2.01209C5.50729 2.63431 5.35174 3.3232 5.44063 4.07876C5.52951 4.83431 5.84063 5.47876 6.37396 6.01209L6.50729 6.21209C6.64063 6.30098 6.78507 6.34542 6.94063 6.34542C7.09618 6.34542 7.2184 6.30098 7.30729 6.21209L11.1073 2.41209C11.2406 2.27876 11.3073 2.13431 11.3073 1.97876C11.3073 1.8232 11.2406 1.67876 11.1073 1.54542L10.974 1.41209C10.3962 0.834312 9.69618 0.523201 8.87396 0.478756C8.05174 0.434313 7.32951 0.656534 6.70729 1.14542C6.17396 0.834312 5.59618 0.71209 4.97396 0.778757C4.35174 0.845423 3.8184 1.10098 3.37396 1.54542C2.84063 2.07876 2.57396 2.7232 2.57396 3.47876V8.87876H2.37396C1.88507 8.87876 1.47396 9.04542 1.14062 9.37876C0.807292 9.71209 0.640625 10.1232 0.640625 10.6121C0.640625 11.0121 0.751736 11.3565 0.973958 11.6454C1.19618 11.9343 1.46285 12.1454 1.77396 12.2788V13.5454C1.77396 14.6121 2.06285 15.5899 2.64062 16.4788C3.2184 17.3676 3.95174 18.0565 4.84063 18.5454L4.30729 19.6121C4.2184 19.7899 4.20729 19.9454 4.27396 20.0788C4.34063 20.2121 4.44063 20.3232 4.57396 20.4121C4.70729 20.501 4.85174 20.5121 5.00729 20.4454C5.16285 20.3788 5.28507 20.2788 5.37396 20.1454L5.97396 18.9454C6.4184 19.0343 6.88507 19.0788 7.37396 19.0788H13.9073C14.3962 19.0788 14.8628 19.0343 15.3073 18.9454L15.9073 20.1454C15.9962 20.2788 16.1184 20.3788 16.274 20.4454C16.4295 20.5121 16.574 20.501 16.7073 20.4121C16.8406 20.3232 16.9406 20.2121 17.0073 20.0788C17.074 19.9454 17.0628 19.7899 16.974 19.6121L16.4406 18.5454C17.3295 18.0565 18.0628 17.3676 18.6406 16.4788C19.2184 15.5899 19.5073 14.6121 19.5073 13.5454V12.2788C19.8184 12.1454 20.0851 11.9343 20.3073 11.6454C20.5295 11.3565 20.6406 11.0121 20.6406 10.6121ZM9.84063 2.01209L6.97396 4.94542C6.66285 4.50098 6.52951 4.03431 6.57396 3.54542C6.6184 3.05653 6.8184 2.63431 7.17396 2.27876C7.52951 1.9232 7.96285 1.7232 8.47396 1.67876C8.98507 1.63431 9.44063 1.74542 9.84063 2.01209ZM2.37396 10.0788H18.9073C19.0406 10.0788 19.1628 10.1343 19.274 10.2454C19.3851 10.3565 19.4406 10.4899 19.4406 10.6454C19.4406 10.801 19.3851 10.9343 19.274 11.0454C19.1628 11.1565 19.0406 11.2121 18.9073 11.2121H2.37396C2.24063 11.2121 2.1184 11.1565 2.00729 11.0454C1.89618 10.9343 1.84063 10.801 1.84063 10.6454C1.84063 10.4899 1.89618 10.3565 2.00729 10.2454C2.1184 10.1343 2.24063 10.0788 2.37396 10.0788ZM18.3073 13.5454C18.3073 14.3454 18.1073 15.0788 17.7073 15.7454C17.3073 16.4121 16.774 16.9454 16.1073 17.3454C15.4406 17.7454 14.7073 17.9454 13.9073 17.9454H7.37396C6.57396 17.9454 5.84063 17.7454 5.17396 17.3454C4.50729 16.9454 3.97396 16.4121 3.57396 15.7454C3.17396 15.0788 2.97396 14.3454 2.97396 13.5454V12.4121H18.3073V13.5454ZM9.10729 6.41209C9.10729 6.58987 9.16285 6.73431 9.27396 6.84542C9.38507 6.95653 9.5184 7.01209 9.67396 7.01209C9.82951 7.01209 9.96285 6.95653 10.074 6.84542C10.1851 6.73431 10.2406 6.58987 10.2406 6.41209C10.2406 6.23431 10.1851 6.08987 10.074 5.97876C9.96285 5.86765 9.82951 5.81209 9.67396 5.81209C9.5184 5.81209 9.38507 5.86765 9.27396 5.97876C9.16285 6.08987 9.10729 6.23431 9.10729 6.41209ZM10.774 4.74542C10.774 4.9232 10.8295 5.06765 10.9406 5.17876C11.0517 5.28987 11.1851 5.34542 11.3406 5.34542C11.4962 5.34542 11.6295 5.28987 11.7406 5.17876C11.8517 5.06765 11.9073 4.9232 11.9073 4.74542C11.9073 4.56765 11.8517 4.4232 11.7406 4.31209C11.6295 4.20098 11.4962 4.14542 11.3406 4.14542C11.1851 4.14542 11.0517 4.20098 10.9406 4.31209C10.8295 4.4232 10.774 4.56765 10.774 4.74542ZM11.174 6.81209C11.174 6.94542 11.2295 7.07876 11.3406 7.21209C11.4517 7.34542 11.5851 7.41209 11.7406 7.41209C11.8962 7.41209 12.0295 7.34542 12.1406 7.21209C12.2517 7.07876 12.3073 6.93431 12.3073 6.77876C12.3073 6.6232 12.2517 6.48987 12.1406 6.37876C12.0295 6.26765 11.8962 6.21209 11.7406 6.21209C11.5851 6.21209 11.4517 6.26765 11.3406 6.37876C11.2295 6.48987 11.174 6.63431 11.174 6.81209Z" fill="#1A1A1A"/>
</g>
<defs>
<clipPath id="clip0_1_45325">
<rect width="20" height="20" fill="white" transform="matrix(1 0 0 -1 0.640625 20.4805)"/>
</clipPath>
</defs>
</svg>
