<svg width="51" height="51" viewBox="0 0 51 51" fill="none" xmlns="http://www.w3.org/2000/svg">
<g clip-path="url(#clip0_1_45442)">
<path d="M29.0677 19.9154C27.9566 19.9154 26.9844 20.332 26.151 21.1654C25.3177 21.9987 24.901 22.9709 24.901 24.082C24.901 25.1931 25.3177 26.1654 26.151 26.9987C26.9844 27.832 27.9566 28.2487 29.0677 28.2487C30.1788 28.2487 31.151 27.832 31.9844 26.9987C32.8177 26.1654 33.2344 25.1931 33.2344 24.082C33.2344 22.9709 32.8177 21.9987 31.9844 21.1654C31.151 20.332 30.1788 19.9154 29.0677 19.9154ZM29.0677 26.2487C28.5122 26.2487 28.0122 26.0543 27.5677 25.6654C27.1233 25.2765 26.901 24.7765 26.901 24.1654C26.901 23.5543 27.1233 23.0265 27.5677 22.582C28.0122 22.1376 28.5399 21.9154 29.151 21.9154C29.7622 21.9154 30.2622 22.1376 30.651 22.582C31.0399 23.0265 31.2344 23.5543 31.2344 24.1654C31.2344 24.7765 31.0399 25.2765 30.651 25.6654C30.2622 26.0543 29.7344 26.2487 29.0677 26.2487ZM47.0677 29.2487L50.401 25.9154C50.6233 25.6931 50.7344 25.4709 50.7344 25.2487C50.7344 25.0265 50.6233 24.8043 50.401 24.582L44.901 18.9154V9.2487C44.901 9.02647 44.7899 8.80425 44.5677 8.58203C44.3455 8.35981 44.1233 8.2487 43.901 8.2487H38.401C38.1788 8.2487 37.9566 8.35981 37.7344 8.58203C37.5122 8.80425 37.401 9.02647 37.401 9.2487V11.582L31.401 5.58203C30.7344 4.91536 29.9566 4.58203 29.0677 4.58203C28.1788 4.58203 27.401 4.91536 26.7344 5.58203L23.401 8.91536C22.8455 6.35981 21.5122 4.2487 19.401 2.58203C17.2899 0.915363 14.901 0.0820312 12.2344 0.0820312C10.7899 0.0820312 9.40104 0.359806 8.06771 0.915363C7.84549 0.915363 7.67882 1.05425 7.56771 1.33203C7.4566 1.60981 7.4566 1.85981 7.56771 2.08203C7.67882 2.30425 7.84549 2.47092 8.06771 2.58203C8.28993 2.69314 8.56771 2.7487 8.90104 2.7487C9.90104 2.30425 11.0122 2.08203 12.2344 2.08203C14.0122 2.08203 15.6233 2.4987 17.0677 3.33203C18.5122 4.16536 19.6788 5.33203 20.5677 6.83203C21.4566 8.33203 21.901 9.94314 21.901 11.6654C21.901 13.3876 21.4566 14.9709 20.5677 16.4154C19.6788 17.8598 18.5122 19.0265 17.0677 19.9154C15.6233 20.8043 14.0399 21.2487 12.3177 21.2487C10.5955 21.2487 8.98438 20.8043 7.48438 19.9154C5.98438 19.0265 4.81771 17.8598 3.98438 16.4154C3.15104 14.9709 2.73438 13.3598 2.73438 11.582C2.73438 10.3598 2.90104 9.2487 3.23438 8.2487C3.34549 7.91536 3.34549 7.63758 3.23438 7.41536C3.12326 7.19314 2.9566 7.02647 2.73438 6.91536C2.51215 6.80425 2.26215 6.80425 1.98438 6.91536C1.7066 7.02647 1.56771 7.19314 1.56771 7.41536C1.01215 8.7487 0.734375 10.1376 0.734375 11.582C0.734375 14.2487 1.56771 16.6376 3.23438 18.7487C4.90104 20.8598 7.01215 22.1931 9.56771 22.7487L7.73438 24.582C7.51215 24.8043 7.40104 25.0265 7.40104 25.2487C7.40104 25.4709 7.51215 25.6931 7.73438 25.9154L11.0677 29.2487C11.1788 29.3598 11.3455 29.4709 11.5677 29.582V44.2487H9.73438C9.51215 44.2487 9.28993 44.332 9.06771 44.4987C8.84549 44.6654 8.73438 44.9154 8.73438 45.2487V49.082C8.73438 49.4154 8.84549 49.6654 9.06771 49.832C9.28993 49.9987 9.51215 50.082 9.73438 50.082H48.401C48.7344 50.082 48.9844 49.9987 49.151 49.832C49.3177 49.6654 49.401 49.4154 49.401 49.082V45.2487C49.401 44.9154 49.3177 44.6654 49.151 44.4987C48.9844 44.332 48.7344 44.2487 48.401 44.2487H46.7344V29.582C46.8455 29.4709 46.9566 29.3598 47.0677 29.2487ZM39.401 10.2487H42.901V17.082L39.401 13.582V10.2487ZM28.0677 6.91536C28.401 6.69314 28.7344 6.58203 29.0677 6.58203C29.401 6.58203 29.7344 6.69314 30.0677 6.91536L48.401 25.2487L46.401 27.2487L29.7344 10.582C29.6233 10.3598 29.4288 10.2487 29.151 10.2487C28.8733 10.2487 28.6233 10.3598 28.401 10.582L22.901 15.9154C23.4566 14.582 23.7344 13.1376 23.7344 11.582V11.2487L28.0677 6.91536ZM9.73438 25.2487L11.901 23.082H12.2344C13.7899 23.082 15.2344 22.8043 16.5677 22.2487L11.7344 27.2487L9.73438 25.2487ZM47.401 48.082H10.7344V46.2487H47.401V48.082ZM32.7344 44.2487H25.401V32.7487H32.7344V44.2487ZM34.7344 44.2487V31.7487C34.7344 31.4154 34.651 31.1654 34.4844 30.9987C34.3177 30.832 34.0677 30.7487 33.7344 30.7487H24.401C24.1788 30.7487 23.9566 30.832 23.7344 30.9987C23.5122 31.1654 23.401 31.4154 23.401 31.7487V44.2487H13.401V28.2487L29.0677 12.582L44.7344 28.2487V44.2487H34.7344ZM12.2344 14.9154C11.7899 14.9154 11.4566 14.8876 11.2344 14.832C11.0122 14.7765 10.7899 14.6654 10.5677 14.4987C10.3455 14.332 10.0955 14.2765 9.81771 14.332C9.53993 14.3876 9.31771 14.5265 9.15104 14.7487C8.98438 14.9709 8.92882 15.1931 8.98438 15.4154C9.03993 15.6376 9.17882 15.8598 9.40104 16.082C10.0677 16.4154 10.6788 16.6376 11.2344 16.7487V17.082C11.2344 17.3043 11.3455 17.5265 11.5677 17.7487C11.7899 17.9709 12.0399 18.082 12.3177 18.082C12.5955 18.082 12.8177 17.9709 12.9844 17.7487C13.151 17.5265 13.2344 17.3043 13.2344 17.082V16.582C13.901 16.4709 14.4288 16.1654 14.8177 15.6654C15.2066 15.1654 15.4566 14.582 15.5677 13.9154C15.6788 13.2487 15.5399 12.6098 15.151 11.9987C14.7622 11.3876 14.1788 10.9154 13.401 10.582C12.401 10.2487 11.7344 9.91536 11.401 9.58203C11.1788 9.47092 11.1233 9.2487 11.2344 8.91536C11.3455 8.58203 11.5122 8.41536 11.7344 8.41536C12.2899 8.19314 12.8455 8.2487 13.401 8.58203C13.6233 8.80425 13.8733 8.88758 14.151 8.83203C14.4288 8.77647 14.6233 8.63758 14.7344 8.41536C14.8455 8.19314 14.901 7.94314 14.901 7.66536C14.901 7.38758 14.7622 7.16536 14.4844 6.9987C14.2066 6.83203 13.7899 6.63758 13.2344 6.41536V6.08203C13.2344 5.85981 13.151 5.66536 12.9844 5.4987C12.8177 5.33203 12.5955 5.2487 12.3177 5.2487C12.0399 5.2487 11.7899 5.33203 11.5677 5.4987C11.3455 5.66536 11.2344 5.85981 11.2344 6.08203V6.41536C10.7899 6.63758 10.3733 6.94314 9.98438 7.33203C9.59549 7.72092 9.34549 8.19314 9.23438 8.7487C9.12326 9.7487 9.40104 10.582 10.0677 11.2487C10.6233 11.582 11.5677 11.9709 12.901 12.4154C13.4566 12.6376 13.6788 13.082 13.5677 13.7487C13.5677 13.9709 13.4288 14.2209 13.151 14.4987C12.8733 14.7765 12.5677 14.9154 12.2344 14.9154ZM3.90104 4.08203C3.90104 4.41536 3.98438 4.66536 4.15104 4.83203C4.31771 4.9987 4.53993 5.08203 4.81771 5.08203C5.09549 5.08203 5.31771 4.9987 5.48438 4.83203C5.65104 4.66536 5.73438 4.44314 5.73438 4.16536C5.73438 3.88758 5.65104 3.66536 5.48438 3.4987C5.31771 3.33203 5.09549 3.2487 4.81771 3.2487C4.53993 3.2487 4.31771 3.33203 4.15104 3.4987C3.98438 3.66536 3.90104 3.85981 3.90104 4.08203Z" fill="#1A1A1A"/>
</g>
<defs>
<clipPath id="clip0_1_45442">
<rect width="50.02" height="50" fill="white" transform="matrix(1 0 0 -1 0.726562 50.082)"/>
</clipPath>
</defs>
</svg>
