<svg width="150" height="43" viewBox="0 0 150 43" fill="none" xmlns="http://www.w3.org/2000/svg">
<g clip-path="url(#clip0_1_45718)">
<path fill-rule="evenodd" clip-rule="evenodd" d="M18.3353 11.771L18.3265 42.2526L21.5809 42.2435L21.5719 31.6036L27.3211 31.5946L27.312 42.2435H30.7184V0.894531L27.3029 3.1592L27.2987 28.3795L21.6077 28.3607L21.6122 6.15527L0 18.6568L0.0290845 35.7934L3.44454 35.8027L3.44896 20.5528L18.3353 11.771Z" fill="white"/>
<path fill-rule="evenodd" clip-rule="evenodd" d="M12.4264 42.1014V18.9453L9.0654 20.9152L9.13634 38.9567L0.0527117 38.8854L0.0078125 42.0833L12.4264 42.1014Z" fill="white"/>
<path d="M54.2933 24.9533V13.7539H57.0432V24.9533C57.0432 26.0157 56.8159 26.9206 56.3612 27.6679C55.9066 28.4153 55.287 28.9868 54.5023 29.3825C53.7177 29.7781 52.8268 29.976 51.8295 29.976C50.8102 29.976 49.9045 29.8038 49.1126 29.4594C48.328 29.115 47.7121 28.5875 47.2647 27.8768C46.8174 27.166 46.5938 26.2648 46.5938 25.1731H49.3656C49.3656 25.8032 49.4646 26.3124 49.6626 26.7008C49.8679 27.0818 50.1539 27.3602 50.5205 27.5361C50.8946 27.7046 51.3308 27.7888 51.8295 27.7888C52.3061 27.7888 52.7278 27.6826 53.0945 27.4701C53.4684 27.2503 53.7617 26.9316 53.9743 26.514C54.187 26.0889 54.2933 25.5687 54.2933 24.9533Z" fill="white"/>
<path d="M67.1219 26.9564V17.8672H69.7838V29.759H67.2759L67.1219 26.9564ZM67.4959 24.4835L68.3868 24.4616C68.3868 25.2602 68.2988 25.9965 68.1229 26.6706C67.9469 27.3374 67.6755 27.9199 67.3089 28.4181C66.9422 28.9091 66.473 29.2937 65.9009 29.5721C65.329 29.8433 64.6433 29.9788 63.8441 29.9788C63.2648 29.9788 62.7332 29.8945 62.2492 29.726C61.7652 29.5574 61.3472 29.2973 60.9953 28.9457C60.6506 28.594 60.383 28.136 60.1923 27.5718C60.0016 27.0077 59.9062 26.3336 59.9062 25.5496V17.8672H62.5571V25.5716C62.5571 26.0039 62.6085 26.3666 62.7111 26.6597C62.8138 26.9454 62.9531 27.1762 63.1291 27.3521C63.3051 27.5279 63.5105 27.6524 63.7451 27.7257C63.9797 27.799 64.229 27.8356 64.493 27.8356C65.2483 27.8356 65.8423 27.6891 66.275 27.396C66.7149 27.0956 67.0266 26.6926 67.2099 26.187C67.4006 25.6815 67.4959 25.1136 67.4959 24.4835Z" fill="white"/>
<path d="M79.1749 26.5359C79.1749 26.2722 79.1089 26.034 78.9769 25.8216C78.8449 25.6017 78.5921 25.4039 78.2179 25.228C77.8519 25.0522 77.3089 24.891 76.5904 24.7445C75.9596 24.6052 75.3806 24.4404 74.8524 24.2499C74.3317 24.0521 73.8844 23.814 73.5104 23.5355C73.1364 23.2571 72.8468 22.9274 72.6414 22.5464C72.4362 22.1653 72.3335 21.7257 72.3335 21.2275C72.3335 20.7439 72.4399 20.286 72.6525 19.8537C72.8651 19.4214 73.1695 19.0404 73.5655 18.7107C73.9614 18.381 74.4417 18.1209 75.0064 17.9304C75.5786 17.7398 76.2161 17.6445 76.9203 17.6445C77.9178 17.6445 78.7721 17.8131 79.4831 18.1501C80.2016 18.4799 80.7514 18.9305 81.1331 19.502C81.5141 20.0661 81.7054 20.7036 81.7054 21.4143H79.0541C79.0541 21.0993 78.9731 20.8062 78.8119 20.5351C78.6581 20.2566 78.4233 20.0332 78.1083 19.8647C77.7926 19.6888 77.3966 19.6009 76.9203 19.6009C76.4658 19.6009 76.0879 19.6742 75.7871 19.8207C75.4939 19.9599 75.2741 20.1431 75.1271 20.3702C74.988 20.5974 74.9184 20.8465 74.9184 21.1176C74.9184 21.3154 74.9551 21.4949 75.0281 21.6561C75.1091 21.81 75.2411 21.9528 75.4241 22.0848C75.6079 22.2093 75.8569 22.3266 76.1726 22.4364C76.4951 22.5464 76.8986 22.6526 77.3824 22.7552C78.2914 22.9457 79.0721 23.1912 79.7254 23.4915C80.3854 23.7846 80.8908 24.1656 81.2433 24.6345C81.5951 25.0962 81.7714 25.6823 81.7714 26.3931C81.7714 26.9206 81.6573 27.4041 81.4301 27.8438C81.2103 28.2761 80.8871 28.6534 80.4618 28.9758C80.0366 29.2908 79.5274 29.5363 78.9334 29.7122C78.3469 29.8881 77.6868 29.976 76.9533 29.976C75.8756 29.976 74.9623 29.7855 74.2144 29.4045C73.4665 29.0161 72.8981 28.5216 72.5095 27.9207C72.1282 27.3126 71.9375 26.6825 71.9375 26.0304H74.5004C74.5297 26.5212 74.6654 26.9133 74.9074 27.2064C75.1564 27.4921 75.4646 27.7009 75.8314 27.8328C76.2056 27.9573 76.5904 28.0197 76.9864 28.0197C77.4626 28.0197 77.8624 27.9573 78.1849 27.8328C78.5081 27.7009 78.7533 27.525 78.9221 27.3053C79.0908 27.0781 79.1749 26.8217 79.1749 26.5359Z" fill="white"/>
<path d="M89.5454 17.8656V19.7999H82.8359V17.8656H89.5454ZM84.7717 14.9531H87.4229V26.4712C87.4229 26.8376 87.4739 27.1196 87.5767 27.3175C87.6869 27.508 87.8369 27.6362 88.0274 27.7022C88.2187 27.7681 88.4422 27.8011 88.6987 27.8011C88.8817 27.8011 89.0579 27.79 89.2267 27.7681C89.3954 27.7461 89.5312 27.7241 89.6339 27.7022L89.6444 29.7244C89.4247 29.7904 89.1682 29.8489 88.8749 29.9002C88.5884 29.9515 88.2584 29.9772 87.8849 29.9772C87.2759 29.9772 86.7374 29.8709 86.2679 29.6584C85.7984 29.4386 85.4317 29.0833 85.1677 28.5924C84.9037 28.1014 84.7717 27.4494 84.7717 26.6361V14.9531Z" fill="white"/>
<path d="M102.441 20.4362V22.6233H93.9384V20.4362H102.441ZM94.6201 13.7539V29.7561H91.8594V13.7539H94.6201ZM104.564 13.7539V29.7561H101.814V13.7539H104.564Z" fill="white"/>
<path d="M107.078 23.9421V23.6894C107.078 22.8321 107.203 22.0371 107.452 21.3044C107.701 20.5644 108.061 19.9233 108.53 19.3811C109.006 18.8316 109.586 18.4066 110.268 18.1062C110.957 17.7984 111.734 17.6445 112.6 17.6445C113.472 17.6445 114.25 17.7984 114.931 18.1062C115.621 18.4066 116.204 18.8316 116.68 19.3811C117.157 19.9233 117.52 20.5644 117.769 21.3044C118.018 22.0371 118.144 22.8321 118.144 23.6894V23.9421C118.144 24.7994 118.018 25.5944 117.769 26.3271C117.52 27.0598 117.157 27.7009 116.68 28.2504C116.204 28.7926 115.624 29.2176 114.943 29.5254C114.261 29.8257 113.487 29.976 112.621 29.976C111.749 29.976 110.968 29.8257 110.278 29.5254C109.597 29.2176 109.018 28.7926 108.541 28.2504C108.064 27.7009 107.701 27.0598 107.452 26.3271C107.203 25.5944 107.078 24.7994 107.078 23.9421ZM109.729 23.6894V23.9421C109.729 24.477 109.784 24.9826 109.894 25.4589C110.004 25.9351 110.176 26.3527 110.41 26.7117C110.645 27.0708 110.946 27.3529 111.313 27.558C111.679 27.7632 112.116 27.8658 112.621 27.8658C113.113 27.8658 113.538 27.7632 113.898 27.558C114.264 27.3529 114.565 27.0708 114.799 26.7117C115.034 26.3527 115.207 25.9351 115.316 25.4589C115.434 24.9826 115.492 24.477 115.492 23.9421V23.6894C115.492 23.1618 115.434 22.6636 115.316 22.1946C115.207 21.7184 115.03 21.2971 114.789 20.9307C114.554 20.5644 114.253 20.2786 113.887 20.0735C113.527 19.861 113.098 19.7547 112.6 19.7547C112.101 19.7547 111.668 19.861 111.301 20.0735C110.942 20.2786 110.645 20.5644 110.41 20.9307C110.176 21.2971 110.004 21.7184 109.894 22.1946C109.784 22.6636 109.729 23.1618 109.729 23.6894Z" fill="white"/>
<path d="M123.018 20.2823V29.7561H120.367V17.8644H122.864L123.018 20.2823ZM122.589 23.3706L121.687 23.3597C121.687 22.539 121.79 21.7807 121.995 21.0846C122.2 20.3886 122.501 19.7841 122.897 19.2711C123.293 18.7509 123.784 18.3516 124.371 18.0732C124.965 17.7875 125.651 17.6445 126.428 17.6445C126.971 17.6445 127.465 17.7252 127.913 17.8863C128.367 18.0402 128.76 18.2857 129.09 18.6228C129.427 18.9597 129.684 19.392 129.86 19.9196C130.043 20.4471 130.134 21.0846 130.134 21.8319V29.7561H127.484V22.0628C127.484 21.4839 127.396 21.0297 127.22 20.7C127.051 20.3703 126.806 20.1357 126.483 19.9965C126.168 19.85 125.79 19.7767 125.35 19.7767C124.851 19.7767 124.426 19.872 124.074 20.0625C123.729 20.253 123.447 20.5131 123.227 20.8428C123.007 21.1725 122.846 21.5535 122.743 21.9858C122.64 22.4181 122.589 22.8798 122.589 23.3706ZM129.969 22.6672L128.727 22.942C128.727 22.224 128.826 21.5462 129.024 20.9088C129.229 20.264 129.526 19.6998 129.915 19.2162C130.311 18.7253 130.798 18.3406 131.378 18.0622C131.957 17.7838 132.621 17.6445 133.368 17.6445C133.977 17.6445 134.52 17.7288 134.997 17.8974C135.48 18.0585 135.891 18.315 136.228 18.6667C136.566 19.0184 136.822 19.4763 136.998 20.0405C137.175 20.5974 137.262 21.2715 137.262 22.0628V29.7561H134.601V22.0518C134.601 21.4509 134.512 20.9857 134.337 20.656C134.168 20.3262 133.926 20.0991 133.611 19.9746C133.295 19.8427 132.918 19.7767 132.477 19.7767C132.067 19.7767 131.704 19.8537 131.388 20.0076C131.081 20.1541 130.821 20.3629 130.608 20.634C130.395 20.8977 130.233 21.2019 130.124 21.5462C130.021 21.8906 129.969 22.2642 129.969 22.6672Z" fill="white"/>
<path d="M145.236 29.976C144.355 29.976 143.56 29.8331 142.849 29.5473C142.145 29.2542 141.544 28.8476 141.045 28.3274C140.554 27.8072 140.176 27.1953 139.912 26.492C139.648 25.7886 139.516 25.0302 139.516 24.2169V23.7773C139.516 22.8468 139.651 22.0041 139.923 21.2495C140.194 20.4948 140.572 19.85 141.056 19.3152C141.54 18.7729 142.112 18.359 142.772 18.0732C143.431 17.7875 144.147 17.6445 144.916 17.6445C145.768 17.6445 146.512 17.7875 147.15 18.0732C147.787 18.359 148.315 18.762 148.733 19.2822C149.158 19.7951 149.474 20.4069 149.68 21.1176C149.892 21.8283 149.998 22.6123 149.998 23.4696V24.6016H140.803V22.7002H147.381V22.4914C147.366 22.0152 147.271 21.5682 147.094 21.1506C146.926 20.7329 146.665 20.3958 146.314 20.1394C145.962 19.883 145.492 19.7547 144.906 19.7547C144.466 19.7547 144.073 19.85 143.728 20.0405C143.392 20.2237 143.109 20.4911 142.882 20.8428C142.654 21.1945 142.478 21.6195 142.354 22.1177C142.237 22.6086 142.178 23.1618 142.178 23.7773V24.2169C142.178 24.7371 142.247 25.2207 142.387 25.6677C142.534 26.1073 142.746 26.492 143.025 26.8217C143.303 27.1514 143.641 27.4115 144.037 27.602C144.433 27.7851 144.883 27.8768 145.39 27.8768C146.028 27.8768 146.596 27.7485 147.094 27.4921C147.593 27.2356 148.026 26.873 148.393 26.404L149.789 27.7559C149.533 28.1295 149.199 28.4886 148.789 28.833C148.378 29.17 147.875 29.4447 147.282 29.6572C146.695 29.8697 146.013 29.976 145.236 29.976Z" fill="white"/>
</g>
<defs>
<clipPath id="clip0_1_45718">
<rect width="150" height="42" fill="white" transform="translate(0 0.25)"/>
</clipPath>
</defs>
</svg>
