<svg width="51" height="51" viewBox="0 0 51 51" fill="none" xmlns="http://www.w3.org/2000/svg">
<g clip-path="url(#clip0_1_45434)">
<path d="M25.737 45.2503H10.237C9.34809 45.2503 8.62587 44.9447 8.07031 44.3336C7.51476 43.7225 7.23698 43.028 7.23698 42.2503V21.4169L22.9036 7.58359C23.6814 6.91692 24.6259 6.58359 25.737 6.58359C26.8481 6.58359 27.7925 6.91692 28.5703 7.58359L48.4036 25.0836C48.6259 25.3058 48.9036 25.3891 49.237 25.3336C49.5703 25.278 49.8481 25.1391 50.0703 24.9169C50.2925 24.6947 50.3759 24.4169 50.3203 24.0836C50.2648 23.7503 50.1259 23.4725 49.9036 23.2503L46.5703 20.4169V8.58359C46.5703 6.91692 45.9592 5.47248 44.737 4.25026C43.5148 3.02803 42.0703 2.4447 40.4036 2.50026C38.737 2.55581 37.3203 3.16692 36.1536 4.33359C34.987 5.50026 34.3481 6.91692 34.237 8.58359V9.58359L30.0703 5.91692C28.8481 4.80581 27.4036 4.25026 25.737 4.25026C24.0703 4.25026 22.6259 4.80581 21.4036 5.91692L1.57031 23.2503C1.23698 23.4725 1.07031 23.7503 1.07031 24.0836C1.07031 24.4169 1.18142 24.6947 1.40365 24.9169C1.62587 25.1391 1.90365 25.278 2.23698 25.3336C2.57031 25.3891 2.84809 25.3058 3.07031 25.0836L4.90365 23.5836V42.2503C4.90365 43.6947 5.43142 44.9447 6.48698 46.0003C7.54253 47.0558 8.79253 47.5836 10.237 47.5836H25.737C26.0703 47.5836 26.3481 47.4725 26.5703 47.2503C26.7925 47.028 26.9036 46.7503 26.9036 46.4169C26.9036 46.0836 26.7925 45.8058 26.5703 45.5836C26.3481 45.3614 26.0703 45.2503 25.737 45.2503ZM36.5703 8.58359C36.6814 7.47248 37.0981 6.55581 37.8203 5.83359C38.5425 5.11137 39.4314 4.77803 40.487 4.83359C41.5425 4.88915 42.4314 5.27803 43.1536 6.00026C43.8759 6.72248 44.237 7.58359 44.237 8.58359V18.2503L36.5703 11.5836V8.58359ZM25.737 14.2503C24.1814 14.2503 22.8481 14.8058 21.737 15.9169C20.6259 17.028 20.0703 18.3614 20.0703 19.9169C20.0703 21.4725 20.6259 22.8058 21.737 23.9169C22.8481 25.028 24.1814 25.5836 25.737 25.5836C27.2925 25.5836 28.6259 25.028 29.737 23.9169C30.8481 22.8058 31.4036 21.4725 31.4036 19.9169C31.4036 18.3614 30.8481 17.028 29.737 15.9169C28.6259 14.8058 27.2925 14.2503 25.737 14.2503ZM29.0703 19.9169C29.0703 20.9169 28.737 21.7225 28.0703 22.3336C27.4036 22.9447 26.6259 23.2503 25.737 23.2503C24.8481 23.2503 24.0703 22.9447 23.4036 22.3336C22.737 21.7225 22.4036 20.9447 22.4036 20.0003C22.4036 19.0558 22.737 18.2503 23.4036 17.5836C24.0703 16.9169 24.8481 16.5836 25.737 16.5836C26.6259 16.5836 27.4036 16.9169 28.0703 17.5836C28.737 18.2503 29.0703 19.028 29.0703 19.9169ZM50.0703 45.7503L46.0703 41.5836C47.0703 40.1391 47.5703 38.528 47.5703 36.7503C47.5703 34.528 46.7648 32.6391 45.1536 31.0836C43.5425 29.528 41.6259 28.7503 39.4036 28.7503C37.1814 28.7503 35.2648 29.528 33.6536 31.0836C32.0425 32.6391 31.237 34.5558 31.237 36.8336C31.237 39.1114 32.0425 41.028 33.6536 42.5836C35.2648 44.1391 37.1814 44.9169 39.4036 44.9169C41.2925 44.9169 42.9592 44.3614 44.4036 43.2503L48.237 47.2503C48.4592 47.4725 48.737 47.6114 49.0703 47.6669C49.4036 47.7225 49.7092 47.6391 49.987 47.4169C50.2648 47.1947 50.4036 46.9169 50.4036 46.5836C50.4036 46.2503 50.2925 45.9725 50.0703 45.7503ZM39.4036 42.5836C37.8481 42.5836 36.487 42.028 35.3203 40.9169C34.1536 39.8058 33.5703 38.4447 33.5703 36.8336C33.5703 35.2225 34.1536 33.8614 35.3203 32.7503C36.487 31.6391 37.8759 31.0836 39.487 31.0836C41.0981 31.0836 42.4592 31.6391 43.5703 32.7503C44.6814 33.8614 45.237 35.2225 45.237 36.8336C45.237 38.4447 44.6814 39.8058 43.5703 40.9169C42.4592 42.028 41.0703 42.5836 39.4036 42.5836Z" fill="#1A1A1A"/>
</g>
<defs>
<clipPath id="clip0_1_45434">
<rect width="50.02" height="50" fill="white" transform="matrix(1 0 0 -1 0.726562 50.082)"/>
</clipPath>
</defs>
</svg>
