<svg width="51" height="51" viewBox="0 0 51 51" fill="none" xmlns="http://www.w3.org/2000/svg">
<g clip-path="url(#clip0_1_45446)">
<path d="M4.40104 6.7487C4.62326 6.7487 4.84549 6.69314 5.06771 6.58203L6.73438 4.91536C6.84549 4.69314 6.90104 4.47092 6.90104 4.2487C6.90104 4.02647 6.81771 3.83203 6.65104 3.66536C6.48438 3.4987 6.28993 3.41536 6.06771 3.41536C5.84549 3.41536 5.62326 3.47092 5.40104 3.58203L3.73438 5.2487C3.51215 5.58203 3.48438 5.91536 3.65104 6.2487C3.81771 6.58203 4.06771 6.7487 4.40104 6.7487ZM4.40104 10.9154C4.62326 10.9154 4.84549 10.8598 5.06771 10.7487L10.901 4.91536C11.1233 4.69314 11.1788 4.41536 11.0677 4.08203C10.9566 3.7487 10.7344 3.52647 10.401 3.41536C10.0677 3.30425 9.78993 3.35981 9.56771 3.58203L3.73438 9.41536C3.51215 9.7487 3.48438 10.082 3.65104 10.4154C3.81771 10.7487 4.06771 10.9154 4.40104 10.9154ZM46.0677 0.0820312H4.40104C3.28993 0.0820312 2.31771 0.498695 1.48438 1.33203C0.651042 2.16536 0.234375 3.13758 0.234375 4.2487V37.582C0.234375 38.6931 0.651042 39.6654 1.48438 40.4987C2.31771 41.332 3.28993 41.7487 4.40104 41.7487H18.5677V44.2487H16.0677C15.1788 44.2487 14.401 44.582 13.7344 45.2487C13.0677 45.9154 12.7344 46.6931 12.7344 47.582V48.4154C12.7344 48.8598 12.901 49.2487 13.2344 49.582C13.5677 49.9154 13.9566 50.082 14.401 50.082H36.0677C36.5122 50.082 36.901 49.9154 37.2344 49.582C37.5677 49.2487 37.7344 48.8598 37.7344 48.4154V47.582C37.7344 46.6931 37.401 45.9154 36.7344 45.2487C36.0677 44.582 35.2899 44.2487 34.401 44.2487H31.901V41.7487H46.0677C47.1788 41.7487 48.151 41.332 48.9844 40.4987C49.8177 39.6654 50.2344 38.6931 50.2344 37.582V4.2487C50.2344 3.13758 49.8177 2.16536 48.9844 1.33203C48.151 0.498695 47.1788 0.0820312 46.0677 0.0820312ZM48.5677 33.4154H41.901V18.4154H48.5677V33.4154ZM48.5677 16.7487H41.901V10.082H48.5677V16.7487ZM48.5677 4.2487V8.41536H41.901V1.7487H46.0677C46.7344 1.7487 47.3177 1.9987 47.8177 2.4987C48.3177 2.9987 48.5677 3.58203 48.5677 4.2487ZM4.40104 1.7487H40.2344V33.4154H1.90104V4.2487C1.90104 3.58203 2.15104 2.9987 2.65104 2.4987C3.15104 1.9987 3.73438 1.7487 4.40104 1.7487ZM36.0677 47.582V48.4154H14.401V47.582C14.401 47.1376 14.5677 46.7487 14.901 46.4154C15.2344 46.082 15.6233 45.9154 16.0677 45.9154H34.401C34.8455 45.9154 35.2344 46.082 35.5677 46.4154C35.901 46.7487 36.0677 47.1376 36.0677 47.582ZM30.2344 44.2487H20.2344V41.7487H30.2344V44.2487ZM46.0677 40.082H4.40104C3.73438 40.082 3.15104 39.832 2.65104 39.332C2.15104 38.832 1.90104 38.2487 1.90104 37.582V35.082H48.5677V37.582C48.5677 38.2487 48.3177 38.832 47.8177 39.332C47.3177 39.832 46.7344 40.082 46.0677 40.082ZM27.7344 36.7487H22.7344C22.5122 36.7487 22.3177 36.832 22.151 36.9987C21.9844 37.1654 21.901 37.3598 21.901 37.582C21.901 37.8043 21.9844 37.9987 22.151 38.1654C22.3177 38.332 22.5122 38.4154 22.7344 38.4154H27.7344C27.9566 38.4154 28.151 38.332 28.3177 38.1654C28.4844 37.9987 28.5677 37.8043 28.5677 37.582C28.5677 37.3598 28.4844 37.1654 28.3177 36.9987C28.151 36.832 27.9566 36.7487 27.7344 36.7487ZM42.901 6.58203C43.1233 6.69314 43.3455 6.7487 43.5677 6.7487C43.7899 6.7487 44.0122 6.69314 44.2344 6.58203L45.2344 5.41536L46.2344 6.58203C46.4566 6.69314 46.6788 6.7487 46.901 6.7487C47.1233 6.7487 47.3177 6.66536 47.4844 6.4987C47.651 6.33203 47.7344 6.13758 47.7344 5.91536C47.7344 5.69314 47.6788 5.47092 47.5677 5.2487L45.901 3.58203C45.6788 3.47092 45.4566 3.41536 45.2344 3.41536C45.0122 3.41536 44.7899 3.47092 44.5677 3.58203L42.901 5.2487C42.7899 5.47092 42.7344 5.69314 42.7344 5.91536C42.7344 6.13758 42.7899 6.35981 42.901 6.58203ZM44.5677 31.582C44.7899 31.6931 45.0122 31.7487 45.2344 31.7487C45.4566 31.7487 45.6788 31.6931 45.901 31.582L47.5677 29.9154C47.6788 29.6931 47.7344 29.4709 47.7344 29.2487C47.7344 29.0265 47.651 28.832 47.4844 28.6654C47.3177 28.4987 47.1233 28.4154 46.901 28.4154C46.6788 28.4154 46.4566 28.4709 46.2344 28.582L45.2344 29.7487L44.2344 28.582C44.0122 28.4709 43.7899 28.4154 43.5677 28.4154C43.3455 28.4154 43.151 28.4987 42.9844 28.6654C42.8177 28.832 42.7344 29.0265 42.7344 29.2487C42.7344 29.4709 42.7899 29.6931 42.901 29.9154L44.5677 31.582ZM43.5677 14.2487H46.901C47.1233 14.2487 47.3177 14.1654 47.4844 13.9987C47.651 13.832 47.7344 13.6376 47.7344 13.4154C47.7344 13.1931 47.651 12.9987 47.4844 12.832C47.3177 12.6654 47.1233 12.582 46.901 12.582H43.5677C43.3455 12.582 43.151 12.6654 42.9844 12.832C42.8177 12.9987 42.7344 13.1931 42.7344 13.4154C42.7344 13.6376 42.8177 13.832 42.9844 13.9987C43.151 14.1654 43.3455 14.2487 43.5677 14.2487ZM4.56771 15.582C4.78993 16.3598 5.28993 16.7487 6.06771 16.7487V25.082C6.06771 25.5265 6.23438 25.9154 6.56771 26.2487C6.90104 26.582 7.28993 26.7487 7.73438 26.7487H21.0677C21.5122 26.7487 21.901 26.582 22.2344 26.2487C22.5677 25.9154 22.7344 25.5265 22.7344 25.082V16.7487C23.5122 16.7487 24.0122 16.3598 24.2344 15.582C24.3455 15.3598 24.3733 15.0543 24.3177 14.6654C24.2622 14.2765 24.1233 13.9709 23.901 13.7487L22.7344 12.7487V8.41536C22.7344 7.97092 22.5677 7.58203 22.2344 7.2487C21.901 6.91536 21.5122 6.7487 21.0677 6.7487H19.401C18.9566 6.7487 18.5677 6.88758 18.2344 7.16536C17.901 7.44314 17.7344 7.80425 17.7344 8.2487L15.5677 6.41536C15.2344 6.08203 14.8455 5.91536 14.401 5.91536C13.9566 5.91536 13.5677 6.08203 13.2344 6.41536L4.90104 13.7487C4.67882 13.9709 4.53993 14.2765 4.48438 14.6654C4.42882 15.0543 4.4566 15.3598 4.56771 15.582ZM13.5677 25.082V22.582C13.5677 22.3598 13.651 22.1654 13.8177 21.9987C13.9844 21.832 14.1788 21.7487 14.401 21.7487C14.6233 21.7487 14.8177 21.832 14.9844 21.9987C15.151 22.1654 15.2344 22.3598 15.2344 22.582V25.082H13.5677ZM16.901 25.082V22.582C16.901 21.9154 16.651 21.332 16.151 20.832C15.651 20.332 15.0677 20.082 14.401 20.082C13.7344 20.082 13.151 20.332 12.651 20.832C12.151 21.332 11.901 21.9154 11.901 22.582V25.082H7.73438V16.7487H21.0677V25.082H16.901ZM19.401 8.41536H21.0677V11.2487L19.401 9.7487V8.41536ZM14.401 7.58203L22.7344 15.082H6.06771L14.401 7.58203ZM26.901 21.7487H36.901C37.1233 21.7487 37.3177 21.6654 37.4844 21.4987C37.651 21.332 37.7344 21.1376 37.7344 20.9154C37.7344 20.6931 37.651 20.4987 37.4844 20.332C37.3177 20.1654 37.1233 20.082 36.901 20.082H26.901C26.6788 20.082 26.4844 20.1654 26.3177 20.332C26.151 20.4987 26.0677 20.6931 26.0677 20.9154C26.0677 21.1376 26.151 21.332 26.3177 21.4987C26.4844 21.6654 26.6788 21.7487 26.901 21.7487ZM26.901 25.9154H36.901C37.1233 25.9154 37.3177 25.832 37.4844 25.6654C37.651 25.4987 37.7344 25.3043 37.7344 25.082C37.7344 24.8598 37.651 24.6654 37.4844 24.4987C37.3177 24.332 37.1233 24.2487 36.901 24.2487H26.901C26.6788 24.2487 26.4844 24.332 26.3177 24.4987C26.151 24.6654 26.0677 24.8598 26.0677 25.082C26.0677 25.3043 26.151 25.4987 26.3177 25.6654C26.4844 25.832 26.6788 25.9154 26.901 25.9154ZM26.901 30.082H31.901C32.1233 30.082 32.3177 29.9987 32.4844 29.832C32.651 29.6654 32.7344 29.4709 32.7344 29.2487C32.7344 29.0265 32.651 28.832 32.4844 28.6654C32.3177 28.4987 32.1233 28.4154 31.901 28.4154H26.901C26.6788 28.4154 26.4844 28.4987 26.3177 28.6654C26.151 28.832 26.0677 29.0265 26.0677 29.2487C26.0677 29.4709 26.151 29.6654 26.3177 29.832C26.4844 29.9987 26.6788 30.082 26.901 30.082ZM29.401 13.4154C29.401 13.1931 29.3177 12.9987 29.151 12.832C28.9844 12.6654 28.7899 12.582 28.5677 12.582C28.3455 12.582 28.151 12.6654 27.9844 12.832C27.8177 12.9987 27.7344 13.1931 27.7344 13.4154C27.7344 14.1931 28.0399 14.8876 28.651 15.4987C29.2622 16.1098 30.0677 16.5265 31.0677 16.7487V17.582C31.0677 17.8043 31.151 17.9987 31.3177 18.1654C31.4844 18.332 31.6788 18.4154 31.901 18.4154C32.1233 18.4154 32.3177 18.332 32.4844 18.1654C32.651 17.9987 32.7344 17.8043 32.7344 17.582V16.7487C33.7344 16.5265 34.5399 16.1098 35.151 15.4987C35.7622 14.8876 36.0677 14.1931 36.0677 13.4154C36.0677 12.6376 35.7622 11.9431 35.151 11.332C34.5399 10.7209 33.7344 10.3043 32.7344 10.082V6.91536C33.1788 7.02647 33.5677 7.22092 33.901 7.4987C34.2344 7.77647 34.401 8.05425 34.401 8.33203C34.401 8.60981 34.4844 8.83203 34.651 8.9987C34.8177 9.16536 35.0122 9.2487 35.2344 9.2487C35.4566 9.2487 35.651 9.16536 35.8177 8.9987C35.9844 8.83203 36.0677 8.63758 36.0677 8.41536C36.0677 7.63758 35.7622 6.94314 35.151 6.33203C34.5399 5.72092 33.7344 5.30425 32.7344 5.08203V4.2487C32.7344 4.02647 32.651 3.83203 32.4844 3.66536C32.3177 3.4987 32.1233 3.41536 31.901 3.41536C31.6788 3.41536 31.4844 3.4987 31.3177 3.66536C31.151 3.83203 31.0677 4.02647 31.0677 4.2487V5.08203C30.0677 5.30425 29.2622 5.72092 28.651 6.33203C28.0399 6.94314 27.7344 7.63758 27.7344 8.41536C27.7344 9.19314 28.0399 9.88758 28.651 10.4987C29.2622 11.1098 30.0677 11.5265 31.0677 11.7487V14.9154C30.6233 14.8043 30.2344 14.6098 29.901 14.332C29.5677 14.0543 29.401 13.7487 29.401 13.4154ZM34.401 13.4154C34.401 13.7487 34.2344 14.0543 33.901 14.332C33.5677 14.6098 33.1788 14.8043 32.7344 14.9154V11.9154C33.1788 12.0265 33.5677 12.2209 33.901 12.4987C34.2344 12.7765 34.401 13.082 34.401 13.4154ZM29.401 8.41536C29.401 8.08203 29.5677 7.77647 29.901 7.4987C30.2344 7.22092 30.6233 7.02647 31.0677 6.91536V9.91536C30.6233 9.80425 30.2344 9.60981 29.901 9.33203C29.5677 9.05425 29.401 8.7487 29.401 8.41536ZM10.2344 29.2487C10.2344 29.4709 10.3177 29.6654 10.4844 29.832C10.651 29.9987 10.8455 30.082 11.0677 30.082C11.2899 30.082 11.4844 29.9987 11.651 29.832C11.8177 29.6654 11.901 29.4709 11.901 29.2487C11.901 29.0265 11.8177 28.832 11.651 28.6654C11.4844 28.4987 11.2899 28.4154 11.0677 28.4154C10.8455 28.4154 10.651 28.4987 10.4844 28.6654C10.3177 28.832 10.2344 29.0265 10.2344 29.2487ZM13.5677 29.2487C13.5677 29.4709 13.651 29.6654 13.8177 29.832C13.9844 29.9987 14.1788 30.082 14.401 30.082C14.6233 30.082 14.8177 29.9987 14.9844 29.832C15.151 29.6654 15.2344 29.4709 15.2344 29.2487C15.2344 29.0265 15.151 28.832 14.9844 28.6654C14.8177 28.4987 14.6233 28.4154 14.401 28.4154C14.1788 28.4154 13.9844 28.4987 13.8177 28.6654C13.651 28.832 13.5677 29.0265 13.5677 29.2487ZM16.901 29.2487C16.901 29.4709 16.9844 29.6654 17.151 29.832C17.3177 29.9987 17.5122 30.082 17.7344 30.082C17.9566 30.082 18.151 29.9987 18.3177 29.832C18.4844 29.6654 18.5677 29.4709 18.5677 29.2487C18.5677 29.0265 18.4844 28.832 18.3177 28.6654C18.151 28.4987 17.9566 28.4154 17.7344 28.4154C17.5122 28.4154 17.3177 28.4987 17.151 28.6654C16.9844 28.832 16.901 29.0265 16.901 29.2487Z" fill="#1A1A1A"/>
</g>
<defs>
<clipPath id="clip0_1_45446">
<rect width="50.02" height="50" fill="white" transform="matrix(1 0 0 -1 0.226562 50.082)"/>
</clipPath>
</defs>
</svg>
