<svg width="20" height="21" viewBox="0 0 20 21" fill="none" xmlns="http://www.w3.org/2000/svg">
<g clip-path="url(#clip0_1_45317)">
<path d="M16.1359 2.89271C15.2915 2.09271 14.347 1.47049 13.3026 1.02604C12.2582 0.581596 11.1582 0.359373 10.0026 0.359373C8.84705 0.359373 7.73594 0.581596 6.66927 1.02604C5.6026 1.47049 4.66927 2.09271 3.86927 2.89271C3.06927 3.69271 2.44705 4.62604 2.0026 5.69271C1.55816 6.75937 1.33594 7.87049 1.33594 9.02604C1.33594 10.1816 1.55816 11.2816 2.0026 12.326C2.44705 13.3705 3.06927 14.3149 3.86927 15.1594L8.46927 19.7594C8.86927 20.1594 9.36927 20.3594 9.96927 20.3594C10.5693 20.3594 11.0915 20.1594 11.5359 19.7594L16.1359 15.1594C16.9359 14.3149 17.5582 13.3705 18.0026 12.326C18.4471 11.2816 18.6693 10.1816 18.6693 9.02604C18.6693 7.87049 18.4471 6.75937 18.0026 5.69271C17.5582 4.62604 16.9359 3.69271 16.1359 2.89271ZM15.2693 14.2927L10.6693 18.8927C10.4915 19.0705 10.2693 19.1594 10.0026 19.1594C9.73594 19.1594 9.49149 19.0705 9.26927 18.8927L4.66927 14.2927C3.95816 13.5816 3.42483 12.7705 3.06927 11.8594C2.71372 10.9483 2.53594 9.99271 2.53594 8.99271C2.53594 7.99271 2.71372 7.03715 3.06927 6.12604C3.42483 5.21493 3.95816 4.41493 4.66927 3.72604C5.38038 3.03715 6.19149 2.50382 7.1026 2.12604C8.01372 1.74826 8.96927 1.55937 9.96927 1.55937C10.9693 1.55937 11.9248 1.74826 12.8359 2.12604C13.747 2.50382 14.5582 3.02604 15.2693 3.69271C16.247 4.67049 16.9026 5.80382 17.2359 7.09271C17.5693 8.3816 17.5693 9.67049 17.2359 10.9594C16.9026 12.2483 16.247 13.3594 15.2693 14.2927ZM10.0026 5.89271C9.15816 5.89271 8.42483 6.20382 7.8026 6.82604C7.18038 7.44826 6.86927 8.1816 6.86927 9.02604C6.86927 9.87049 7.18038 10.5927 7.8026 11.1927C8.42483 11.7927 9.15816 12.0927 10.0026 12.0927C10.847 12.0927 11.5693 11.7927 12.1693 11.1927C12.7693 10.5927 13.0693 9.87049 13.0693 9.02604C13.0693 8.1816 12.7693 7.44826 12.1693 6.82604C11.5693 6.20382 10.847 5.89271 10.0026 5.89271ZM10.0026 10.9594C9.46927 10.9594 9.01372 10.7705 8.63594 10.3927C8.25816 10.0149 8.06927 9.55937 8.06927 9.02604C8.06927 8.49271 8.25816 8.03715 8.63594 7.65937C9.01372 7.2816 9.46927 7.09271 10.0026 7.09271C10.5359 7.09271 10.9915 7.2816 11.3693 7.65937C11.747 8.03715 11.9359 8.49271 11.9359 9.02604C11.9359 9.55937 11.747 10.0149 11.3693 10.3927C10.9915 10.7705 10.5359 10.9594 10.0026 10.9594Z" fill="#1A1A1A"/>
</g>
<defs>
<clipPath id="clip0_1_45317">
<rect width="20" height="20" fill="white" transform="matrix(1 0 0 -1 0 20.3594)"/>
</clipPath>
</defs>
</svg>
