<svg width="52" height="52" viewBox="0 0 52 52" fill="none" xmlns="http://www.w3.org/2000/svg">
<rect x="0.476562" y="0.863281" width="51" height="51" rx="25.5" fill="white"/>
<g clip-path="url(#clip0_1_45464)">
<path d="M19.3521 26.292H31.3627L26.7636 21.9128C26.5228 21.6835 26.5135 21.3025 26.7429 21.0617C26.9719 20.8213 27.353 20.8116 27.5942 21.041L32.8465 26.0425C33.0737 26.27 33.1993 26.5722 33.1993 26.8939C33.1993 27.2153 33.0737 27.5177 32.8359 27.7552L27.5939 32.7466C27.4774 32.8575 27.3281 32.9126 27.1787 32.9126C27.0198 32.9126 26.8609 32.85 26.7426 32.7258C26.5132 32.4851 26.5225 32.1044 26.7633 31.8751L31.3817 27.4958H19.3521C19.0197 27.4958 18.75 27.2261 18.75 26.8939C18.75 26.5617 19.0197 26.292 19.3521 26.292Z" fill="#1A1A1A"/>
</g>
<defs>
<clipPath id="clip0_1_45464">
<rect width="15" height="12.84" fill="white" transform="translate(18.4766 20.4727)"/>
</clipPath>
</defs>
</svg>
