<svg width="45" height="45" viewBox="0 0 45 45" fill="none" xmlns="http://www.w3.org/2000/svg">
<g clip-path="url(#clip0_0_238)">
<path d="M9.67883 38.0198C6.64234 38.0198 4.27007 36.9722 2.56204 34.8769C0.854015 32.6865 0 29.4484 0 25.1627C0 20.6865 0.99635 16.4008 2.98905 12.3055C5.07664 8.21025 8.01825 4.16264 11.8139 0.162639C11.9088 0.0673967 12.0511 0.0197754 12.2409 0.0197754C12.5255 0.0197754 12.7153 0.162633 12.8102 0.448349C13 0.638823 13.0474 0.876918 12.9526 1.16264C10.6752 4.21026 9.10949 7.16264 8.25548 10.0198C7.49635 12.7817 7.11679 15.8769 7.11679 19.3055C7.11679 21.8769 7.44891 23.8769 8.11314 25.3055C8.77737 26.7341 9.67883 28.0198 10.8175 29.1627L5.40876 30.1627C5.31387 28.5436 5.74088 27.3055 6.68978 26.4484C7.73358 25.5912 9.06205 25.1627 10.6752 25.1627C12.6679 25.1627 14.1861 25.7341 15.2299 26.8769C16.3686 28.0198 16.938 29.5912 16.938 31.5912C16.938 33.6865 16.2737 35.3055 14.9453 36.4484C13.7117 37.496 11.9562 38.0198 9.67883 38.0198ZM31.5985 38.0198C28.562 38.0198 26.1898 36.9722 24.4818 34.8769C22.8686 32.6865 22.062 29.4484 22.062 25.1627C22.062 20.5912 23.0584 16.2579 25.0511 12.1627C27.0438 8.0674 29.9854 4.0674 33.8759 0.162639C33.9708 0.0673967 34.1131 0.0197754 34.3029 0.0197754C34.5876 0.0197754 34.7774 0.162633 34.8723 0.448349C35.062 0.638823 35.1095 0.876918 35.0146 1.16264C32.7372 4.21026 31.1715 7.16264 30.3175 10.0198C29.5584 12.7817 29.1788 15.8769 29.1788 19.3055C29.1788 21.8769 29.4635 23.9246 30.0328 25.4484C30.6971 26.8769 31.5985 28.115 32.7372 29.1627L27.4708 30.1627C27.3759 28.5436 27.8029 27.3055 28.7518 26.4484C29.7007 25.5912 31.0292 25.1627 32.7372 25.1627C34.7299 25.1627 36.2482 25.7341 37.292 26.8769C38.4307 28.0198 39 29.5912 39 31.5912C39 33.6865 38.3358 35.3055 37.0073 36.4484C35.7737 37.496 33.9708 38.0198 31.5985 38.0198Z" fill="#1A1A1A"/>
</g>
<defs>
<clipPath id="clip0_0_238">
<rect width="45" height="44" fill="white" transform="translate(0 0.0197754)"/>
</clipPath>
</defs>
</svg>
