<svg width="21" height="21" viewBox="0 0 21 21" fill="none" xmlns="http://www.w3.org/2000/svg">
<path d="M20.7766 19.4987L15.8432 14.632C16.4655 13.8765 16.9543 13.0431 17.3099 12.132C17.6655 11.2209 17.8432 10.2543 17.8432 9.23203C17.8432 7.72092 17.4655 6.32092 16.7099 5.03203C15.9543 3.74314 14.9321 2.72092 13.6432 1.96536C12.3543 1.20981 10.9432 0.832029 9.4099 0.832029C7.87656 0.832029 6.46545 1.20981 5.17656 1.96536C3.88767 2.72092 2.86545 3.74314 2.1099 5.03203C1.35434 6.32092 0.976562 7.73203 0.976562 9.26536C0.976562 10.7987 1.35434 12.2098 2.1099 13.4987C2.86545 14.7876 3.88767 15.8098 5.17656 16.5654C6.46545 17.3209 7.86545 17.6987 9.37656 17.6987C10.3988 17.6987 11.3655 17.5209 12.2766 17.1654C13.1877 16.8098 14.021 16.3209 14.7766 15.6987L19.6432 20.632C19.821 20.7654 20.0099 20.832 20.2099 20.832C20.4099 20.832 20.5877 20.7543 20.7432 20.5987C20.8988 20.4431 20.9766 20.2654 20.9766 20.0654C20.9766 19.8654 20.9099 19.6765 20.7766 19.4987ZM2.5099 9.23203C2.5099 7.98759 2.82101 6.84314 3.44323 5.7987C4.06545 4.75425 4.89878 3.92092 5.94323 3.2987C6.98767 2.67648 8.13212 2.36536 9.37656 2.36536C10.621 2.36536 11.7655 2.67648 12.8099 3.2987C13.8543 3.92092 14.6877 4.75425 15.3099 5.7987C15.9321 6.84314 16.2432 7.98759 16.2432 9.23203C16.2432 10.4765 15.9321 11.6209 15.3099 12.6654C14.6877 13.7098 13.8543 14.5431 12.8099 15.1654C11.7655 15.7876 10.621 16.0987 9.37656 16.0987C8.13212 16.0987 6.98767 15.7876 5.94323 15.1654C4.89878 14.5431 4.06545 13.7098 3.44323 12.6654C2.82101 11.6209 2.5099 10.4765 2.5099 9.23203Z" fill="#1A1A1A"/>
</svg>
