<svg width="21" height="21" viewBox="0 0 21 21" fill="none" xmlns="http://www.w3.org/2000/svg">
<path d="M16.3901 19.2805H13.9901C13.8568 19.2805 13.7234 19.3471 13.5901 19.4805C13.4568 19.6138 13.3901 19.7582 13.3901 19.9138C13.3901 20.0694 13.4568 20.2027 13.5901 20.3138C13.7234 20.4249 13.8568 20.4805 13.9901 20.4805H16.3901C16.5679 20.4805 16.7123 20.4249 16.8234 20.3138C16.9345 20.2027 16.9901 20.0694 16.9901 19.9138C16.9901 19.7582 16.9345 19.6138 16.8234 19.4805C16.7123 19.3471 16.5679 19.2805 16.3901 19.2805ZM11.6568 19.2805H9.32344C9.14566 19.2805 9.00122 19.3471 8.8901 19.4805C8.77899 19.6138 8.72344 19.7582 8.72344 19.9138C8.72344 20.0694 8.77899 20.2027 8.8901 20.3138C9.00122 20.4249 9.14566 20.4805 9.32344 20.4805H11.6568C11.8345 20.4805 11.979 20.4249 12.0901 20.3138C12.2012 20.2027 12.2568 20.0694 12.2568 19.9138C12.2568 19.7582 12.2012 19.6138 12.0901 19.4805C11.979 19.3471 11.8345 19.2805 11.6568 19.2805ZM19.9234 8.68047C19.7901 8.68047 19.6568 8.73602 19.5234 8.84713C19.3901 8.95825 19.3234 9.10269 19.3234 9.28047V11.6138C19.3234 11.7916 19.3901 11.936 19.5234 12.0471C19.6568 12.1582 19.8012 12.2138 19.9568 12.2138C20.1123 12.2138 20.2457 12.1582 20.3568 12.0471C20.4679 11.936 20.5234 11.7916 20.5234 11.6138V9.28047C20.5234 9.10269 20.4679 8.95825 20.3568 8.84713C20.2457 8.73602 20.1012 8.68047 19.9234 8.68047ZM19.9234 13.3471C19.7901 13.3471 19.6568 13.4138 19.5234 13.5471C19.3901 13.6805 19.3234 13.8138 19.3234 13.9471V16.2805C19.3234 16.4582 19.3901 16.6027 19.5234 16.7138C19.6568 16.8249 19.8012 16.8805 19.9568 16.8805C20.1123 16.8805 20.2457 16.8249 20.3568 16.7138C20.4679 16.6027 20.5234 16.4582 20.5234 16.2805V13.9471C20.5234 13.8138 20.4679 13.6805 20.3568 13.5471C20.2457 13.4138 20.1012 13.3471 19.9234 13.3471ZM6.9901 19.2805H6.3901V18.7471C6.3901 18.5694 6.33455 18.4249 6.22344 18.3138C6.11233 18.2027 5.96788 18.1471 5.7901 18.1471C5.61233 18.1471 5.46788 18.2027 5.35677 18.3138C5.24566 18.4249 5.1901 18.5694 5.1901 18.7471V19.8805C5.1901 20.0582 5.24566 20.2027 5.35677 20.3138C5.46788 20.4249 5.61233 20.4805 5.7901 20.4805H6.9901C7.12344 20.4805 7.24566 20.4249 7.35677 20.3138C7.46788 20.2027 7.52344 20.0694 7.52344 19.9138C7.52344 19.7582 7.46788 19.6138 7.35677 19.4805C7.24566 19.3471 7.12344 19.2805 6.9901 19.2805ZM19.9234 5.14713H18.7901C18.6123 5.14713 18.4679 5.20269 18.3568 5.3138C18.2457 5.42491 18.1901 5.56936 18.1901 5.74713C18.1901 5.92491 18.2457 6.06936 18.3568 6.18047C18.4679 6.29158 18.6123 6.34713 18.7901 6.34713H19.3234V6.94713C19.3234 7.08047 19.3901 7.20269 19.5234 7.3138C19.6568 7.42491 19.8012 7.48047 19.9568 7.48047C20.1123 7.48047 20.2457 7.42491 20.3568 7.3138C20.4679 7.20269 20.5234 7.08047 20.5234 6.94713V5.74713C20.5234 5.56936 20.4679 5.42491 20.3568 5.3138C20.2457 5.20269 20.1012 5.14713 19.9234 5.14713ZM19.9234 18.1471C19.7901 18.1471 19.6568 18.2027 19.5234 18.3138C19.3901 18.4249 19.3234 18.5694 19.3234 18.7471V19.2805H18.7901C18.6123 19.2805 18.4679 19.3471 18.3568 19.4805C18.2457 19.6138 18.1901 19.7582 18.1901 19.9138C18.1901 20.0694 18.2457 20.2027 18.3568 20.3138C18.4679 20.4249 18.6123 20.4805 18.7901 20.4805H19.9234C20.1012 20.4805 20.2457 20.4249 20.3568 20.3138C20.4679 20.2027 20.5234 20.0582 20.5234 19.8805V18.7471C20.5234 18.5694 20.4679 18.4249 20.3568 18.3138C20.2457 18.2027 20.1012 18.1471 19.9234 18.1471ZM16.3901 5.14713H15.7901V1.08047C15.7901 0.902691 15.7234 0.758245 15.5901 0.647135C15.4568 0.536024 15.3234 0.480467 15.1901 0.480467H1.12344C0.94566 0.480467 0.801215 0.536024 0.690104 0.647135C0.578993 0.758245 0.523438 0.902691 0.523438 1.08047V15.1471C0.523438 15.2805 0.578993 15.4138 0.690104 15.5471C0.801215 15.6805 0.94566 15.7471 1.12344 15.7471H5.1901V16.2805C5.1901 16.4582 5.24566 16.6027 5.35677 16.7138C5.46788 16.8249 5.61233 16.8805 5.7901 16.8805C5.96788 16.8805 6.11233 16.8249 6.22344 16.7138C6.33455 16.6027 6.3901 16.4582 6.3901 16.2805V6.34713H16.3901C16.5679 6.34713 16.7123 6.29158 16.8234 6.18047C16.9345 6.06936 16.9901 5.92491 16.9901 5.74713C16.9901 5.56936 16.9345 5.42491 16.8234 5.3138C16.7123 5.20269 16.5679 5.14713 16.3901 5.14713ZM14.5901 5.14713H5.7901C5.61233 5.14713 5.46788 5.20269 5.35677 5.3138C5.24566 5.42491 5.1901 5.56936 5.1901 5.74713V14.5471H1.72344V1.68047H14.5901V5.14713Z" fill="#1A1A1A"/>
</svg>
