<svg width="61" height="61" viewBox="0 0 61 61" fill="none" xmlns="http://www.w3.org/2000/svg">
<path d="M30.3201 56.4601C29.5201 56.4601 28.7867 56.2601 28.1201 55.8601L19.3201 50.6601C15.5867 48.5267 12.5534 45.5934 10.2201 41.8601C7.88673 38.1267 6.52007 34.1267 6.12007 29.8601L4.92007 14.8601C4.78673 13.7934 4.98673 12.8267 5.52007 11.9601C6.0534 11.0934 6.78673 10.5267 7.72007 10.2601C9.18673 9.86008 10.5201 9.26008 11.7201 8.46008C13.1867 7.52675 14.5201 6.32675 15.7201 4.86008C16.5201 3.79342 17.6534 3.26008 19.1201 3.26008H41.5201C42.9867 3.26008 44.1201 3.79342 44.9201 4.86008C46.1201 6.32675 47.4534 7.52675 48.9201 8.46008C50.1201 9.26008 51.4534 9.86008 52.9201 10.2601C53.8534 10.5267 54.5867 11.0934 55.1201 11.9601C55.6534 12.8267 55.9201 13.7267 55.9201 14.6601L54.5201 29.6601C54.2534 34.0601 52.9534 38.0934 50.6201 41.7601C48.2867 45.4267 45.2534 48.3934 41.5201 50.6601L32.7201 55.8601C31.9201 56.2601 31.1201 56.4601 30.3201 56.4601ZM19.1201 6.86008C18.8534 6.86008 18.6534 6.92675 18.5201 7.06008C17.1867 8.79342 15.6534 10.3267 13.9201 11.6601C12.4534 12.5934 10.8534 13.2601 9.12007 13.6601C8.72007 13.7934 8.52007 14.0601 8.52007 14.4601L9.92007 29.4601C10.1867 33.1934 11.3201 36.6601 13.3201 39.8601C15.3201 43.0601 17.9201 45.5934 21.1201 47.4601L29.9201 52.6601C30.1867 52.7934 30.4534 52.7934 30.7201 52.6601L39.5201 47.4601C42.7201 45.5934 45.3201 43.0934 47.3201 39.9601C49.3201 36.8267 50.4534 33.3267 50.7201 29.4601L52.1201 14.4601C52.1201 14.1934 51.9201 13.9934 51.5201 13.8601C49.7867 13.4601 48.1867 12.7267 46.7201 11.6601C44.9867 10.4601 43.4534 8.99342 42.1201 7.26008C41.9867 7.12675 41.7867 7.06008 41.5201 7.06008L19.1201 6.86008ZM28.5201 35.6601C27.9867 35.6601 27.5201 35.4601 27.1201 35.0601L22.1201 30.0601C21.8534 29.7934 21.7534 29.4268 21.8201 28.9601C21.8867 28.4934 22.0867 28.0934 22.4201 27.7601C22.7534 27.4268 23.1201 27.2267 23.5201 27.1601C23.9201 27.0934 24.3201 27.1934 24.7201 27.4601L28.5201 31.2601L37.1201 22.4601C37.5201 22.3267 37.9201 22.2601 38.3201 22.2601C38.7201 22.2601 39.0867 22.4268 39.4201 22.7601C39.7534 23.0934 39.9534 23.4601 40.0201 23.8601C40.0867 24.2601 39.9867 24.6601 39.7201 25.0601L29.7201 35.0601C29.4534 35.4601 29.0534 35.6601 28.5201 35.6601Z" fill="#1A1A1A"/>
</svg>
