<svg width="17" height="17" viewBox="0 0 17 17" fill="none" xmlns="http://www.w3.org/2000/svg">
<g clip-path="url(#clip0_1_45750)">
<path d="M8.70062 8.48333C9.76729 8.48333 10.674 8.10111 11.4206 7.33667C12.1673 6.57222 12.5406 5.65667 12.5406 4.59C12.5406 3.52333 12.1673 2.61667 11.4206 1.87C10.674 1.12333 9.76729 0.75 8.70062 0.75C7.63396 0.75 6.72729 1.12333 5.98063 1.87C5.23396 2.61667 4.86063 3.52333 4.86063 4.59C4.86063 5.65667 5.23396 6.57222 5.98063 7.33667C6.72729 8.10111 7.63396 8.48333 8.70062 8.48333ZM6.62063 2.56333C7.18951 1.99444 7.87396 1.71 8.67396 1.71C9.47396 1.71 10.1673 1.99444 10.754 2.56333C11.3406 3.13222 11.634 3.81667 11.634 4.61667C11.634 5.41667 11.3495 6.10111 10.7806 6.67C10.2117 7.23889 9.5184 7.52333 8.70062 7.52333C7.88285 7.52333 7.18951 7.23889 6.62063 6.67C6.05174 6.10111 5.76729 5.41667 5.76729 4.61667C5.76729 3.81667 6.05174 3.13222 6.62063 2.56333ZM15.4206 13.07C15.4206 12.75 15.3851 12.4033 15.314 12.03C15.2428 11.6567 15.154 11.3189 15.0473 11.0167C14.9406 10.7144 14.7984 10.4033 14.6206 10.0833C14.4428 9.76333 14.2384 9.48778 14.0073 9.25667C13.7762 9.02556 13.4828 8.83889 13.1273 8.69667C12.7717 8.55444 12.3806 8.48333 11.954 8.48333C11.8117 8.48333 11.5984 8.57222 11.314 8.75L10.674 9.17667C10.4606 9.31889 10.1762 9.44333 9.82063 9.55C9.46507 9.65667 9.1184 9.71 8.78063 9.71C8.44285 9.71 8.09618 9.65667 7.74062 9.55C7.38507 9.44333 7.1184 9.31889 6.94063 9.17667L6.24729 8.75C5.9984 8.57222 5.80285 8.48333 5.66062 8.48333C5.23396 8.48333 4.84285 8.55444 4.48729 8.69667C4.13174 8.83889 3.82951 9.02556 3.58063 9.25667C3.33174 9.48778 3.1184 9.76333 2.94063 10.0833C2.76285 10.4033 2.62063 10.7233 2.51396 11.0433C2.40729 11.3633 2.32729 11.7011 2.27396 12.0567C2.22062 12.4122 2.18507 12.7411 2.16729 13.0433C2.14951 13.3456 2.14062 13.6567 2.14062 13.9767C2.14062 14.83 2.3984 15.5056 2.91396 16.0033C3.42951 16.5011 4.11396 16.75 4.96729 16.75H12.6473C13.4651 16.75 14.1406 16.5011 14.674 16.0033C15.2073 15.5056 15.474 14.83 15.474 13.9767C15.474 13.6567 15.4562 13.3544 15.4206 13.07ZM14.034 15.31C13.6784 15.63 13.2162 15.79 12.6473 15.79H4.96729C4.36285 15.79 3.89174 15.63 3.55396 15.31C3.21618 14.99 3.04729 14.5456 3.04729 13.9767L3.10063 13.1233C3.10063 12.8389 3.13618 12.5367 3.20729 12.2167C3.2784 11.8967 3.34951 11.6033 3.42062 11.3367C3.49174 11.07 3.5984 10.8122 3.74063 10.5633C3.88285 10.3144 4.04285 10.11 4.22063 9.95C4.3984 9.79 4.60285 9.66556 4.83396 9.57667C5.06507 9.48778 5.30507 9.44333 5.55396 9.44333L6.40729 9.97667C6.69174 10.1544 7.04729 10.3056 7.47396 10.43C7.90063 10.5544 8.33618 10.6167 8.78063 10.6167C9.22507 10.6167 9.66951 10.5544 10.114 10.43C10.5584 10.3056 10.9051 10.1544 11.154 9.97667L12.0073 9.44333C12.2917 9.44333 12.5495 9.48778 12.7806 9.57667C13.0117 9.66556 13.2073 9.79 13.3673 9.95C13.5273 10.11 13.6784 10.3144 13.8206 10.5633C13.9628 10.8122 14.0784 11.07 14.1673 11.3367C14.2562 11.6033 14.3273 11.8967 14.3806 12.2167C14.434 12.5367 14.4784 12.8389 14.514 13.1233V13.9767C14.514 14.5456 14.354 14.99 14.034 15.31Z" fill="white"/>
</g>
<defs>
<clipPath id="clip0_1_45750">
<rect width="15.95" height="16" fill="white" transform="matrix(1 0 0 -1 0.804688 16.75)"/>
</clipPath>
</defs>
</svg>
