<svg width="20" height="21" viewBox="0 0 20 21" fill="none" xmlns="http://www.w3.org/2000/svg">
<g clip-path="url(#clip0_1_45321)">
<path d="M17.5333 6.74766H8.73333C8.28889 6.74766 7.86667 6.88099 7.46667 7.14766C7.37778 6.48099 7.1 5.93654 6.63333 5.51432C6.16667 5.0921 5.62222 4.88099 5 4.88099C4.51111 4.88099 4.06667 4.9921 3.66667 5.21432V4.21432C3.66667 4.03654 3.61111 3.8921 3.5 3.78099C3.38889 3.66988 3.24444 3.61432 3.06667 3.61432H0.6C0.422222 3.61432 0.277778 3.66988 0.166667 3.78099C0.0555556 3.8921 0 4.03654 0 4.21432V16.7477C0 16.9254 0.0555556 17.0699 0.166667 17.181C0.277778 17.2921 0.422222 17.3477 0.6 17.3477H3.06667C3.24444 17.3477 3.38889 17.2921 3.5 17.181C3.61111 17.0699 3.66667 16.9254 3.66667 16.7477V14.8143H16.3333V16.7477C16.3333 16.9254 16.3889 17.0699 16.5 17.181C16.6111 17.2921 16.7556 17.3477 16.9333 17.3477H19.4C19.5778 17.3477 19.7222 17.2921 19.8333 17.181C19.9444 17.0699 20 16.9254 20 16.7477V9.21432C20 8.54766 19.7556 7.96988 19.2667 7.48099C18.7778 6.9921 18.2 6.74766 17.5333 6.74766ZM5 6.01432C5.35556 6.01432 5.65556 6.14766 5.9 6.41432C6.14444 6.68099 6.26667 6.9921 6.26667 7.34766C6.26667 7.70321 6.14444 8.00321 5.9 8.24766C5.65556 8.4921 5.35556 8.61432 5 8.61432C4.64444 8.61432 4.33333 8.4921 4.06667 8.24766C3.8 8.00321 3.66667 7.70321 3.66667 7.34766C3.66667 6.9921 3.8 6.68099 4.06667 6.41432C4.33333 6.14766 4.64444 6.01432 5 6.01432ZM3.66667 9.41432C4.06667 9.68099 4.5 9.81432 4.96667 9.81432C5.43333 9.81432 5.86667 9.68099 6.26667 9.41432V11.1477H3.66667V9.41432ZM18.8 16.1477H17.4667V14.2143C17.4667 14.081 17.4111 13.9588 17.3 13.8477C17.1889 13.7365 17.0667 13.681 16.9333 13.681H3.06667C2.93333 13.681 2.81111 13.7365 2.7 13.8477C2.58889 13.9588 2.53333 14.081 2.53333 14.2143V16.1477H1.2V4.81432H2.53333V11.7477C2.53333 11.881 2.58889 12.0143 2.7 12.1477C2.81111 12.281 2.93333 12.3477 3.06667 12.3477H18.8V16.1477ZM18.8 11.1477H7.46667V9.21432C7.46667 8.85877 7.58889 8.55877 7.83333 8.31432C8.07778 8.06988 8.37778 7.94766 8.73333 7.94766H17.5333C17.8889 7.94766 18.1889 8.06988 18.4333 8.31432C18.6778 8.55877 18.8 8.85877 18.8 9.21432V11.1477Z" fill="#1A1A1A"/>
</g>
<defs>
<clipPath id="clip0_1_45321">
<rect width="20" height="20" fill="white" transform="matrix(1 0 0 -1 0 20.4805)"/>
</clipPath>
</defs>
</svg>
