<svg width="200" height="58" viewBox="0 0 200 58" fill="none" xmlns="http://www.w3.org/2000/svg">
<g clip-path="url(#clip0_0_380)">
<g clip-path="url(#clip1_0_380)">
<path fill-rule="evenodd" clip-rule="evenodd" d="M24.4471 16.292L24.4353 56.934L28.7746 56.9219L28.7625 42.7355L36.4281 42.7234L36.416 56.9219H40.9578V1.79004L36.4039 4.8096L36.3983 38.4366L28.8102 38.4115L28.8162 8.80436L0 25.4731L0.0387793 48.3217L4.59272 48.3341L4.59861 28.001L24.4471 16.292Z" fill="#1A1A1A"/>
<path fill-rule="evenodd" clip-rule="evenodd" d="M16.567 56.7316V25.8569L12.0856 28.4834L12.1802 52.5388L0.0686852 52.4436L0.00881958 56.7075L16.567 56.7316Z" fill="#1A1A1A"/>
<path d="M72.3921 33.8715V18.939H76.0586V33.8715C76.0586 35.288 75.7555 36.4945 75.1493 37.491C74.5431 38.4875 73.717 39.2495 72.6708 39.777C71.6246 40.3046 70.4367 40.5684 69.107 40.5684C67.7479 40.5684 66.5404 40.3388 65.4845 39.8796C64.4383 39.4205 63.6171 38.7171 63.0206 37.7694C62.4242 36.8218 62.126 35.6202 62.126 34.1645H65.8218C65.8218 35.0047 65.9538 35.6837 66.2178 36.2014C66.4916 36.7095 66.8729 37.0807 67.3617 37.3152C67.8604 37.5399 68.4421 37.6522 69.107 37.6522C69.7425 37.6522 70.3047 37.5105 70.7936 37.2272C71.2922 36.9342 71.6833 36.5092 71.9668 35.9523C72.2504 35.3857 72.3921 34.6921 72.3921 33.8715Z" fill="#1A1A1A"/>
<path d="M89.4926 36.5383V24.4194H93.0417V40.2751H89.6979L89.4926 36.5383ZM89.9912 33.2411L91.1791 33.2118C91.1791 34.2767 91.0618 35.2585 90.8272 36.1573C90.5925 37.0463 90.2307 37.823 89.7419 38.4873C89.253 39.1418 88.6273 39.6547 87.8646 40.026C87.102 40.3874 86.1878 40.5682 85.1221 40.5682C84.3497 40.5682 83.6409 40.4558 82.9956 40.2311C82.3503 40.0064 81.793 39.6596 81.3237 39.1907C80.8641 38.7217 80.5073 38.1112 80.2531 37.3589C79.9988 36.6067 79.8717 35.7079 79.8717 34.6626V24.4194H83.4062V34.6919C83.4062 35.2683 83.4747 35.7519 83.6115 36.1426C83.7484 36.5236 83.9342 36.8314 84.1688 37.0658C84.4035 37.3003 84.6773 37.4664 84.9901 37.5641C85.303 37.6618 85.6354 37.7106 85.9874 37.7106C86.9945 37.7106 87.7864 37.5152 88.3633 37.1245C88.9499 36.7239 89.3655 36.1866 89.6099 35.5125C89.8641 34.8384 89.9912 34.0813 89.9912 33.2411Z" fill="#1A1A1A"/>
<path d="M105.566 35.9816C105.566 35.6299 105.478 35.3124 105.302 35.0291C105.126 34.736 104.789 34.4723 104.29 34.2378C103.802 34.0033 103.078 33.7884 102.12 33.593C101.279 33.4074 100.507 33.1876 99.8027 32.9336C99.1085 32.6698 98.5121 32.3523 98.0134 31.9811C97.5148 31.6098 97.1286 31.1702 96.8548 30.6622C96.5811 30.1542 96.4442 29.5681 96.4442 28.9037C96.4442 28.259 96.586 27.6484 96.8695 27.072C97.153 26.4956 97.5588 25.9876 98.0868 25.548C98.6147 25.1083 99.2551 24.7615 100.008 24.5075C100.771 24.2535 101.621 24.1265 102.56 24.1265C103.89 24.1265 105.029 24.3512 105.977 24.8006C106.935 25.2402 107.668 25.841 108.177 26.603C108.685 27.3553 108.94 28.2052 108.94 29.1529H105.405C105.405 28.7328 105.297 28.342 105.082 27.9805C104.877 27.6093 104.564 27.3113 104.144 27.0866C103.723 26.8522 103.195 26.7349 102.56 26.7349C101.954 26.7349 101.45 26.8326 101.049 27.028C100.658 27.2136 100.365 27.4579 100.169 27.7607C99.9836 28.0636 99.8907 28.3957 99.8907 28.7572C99.8907 29.021 99.9396 29.2603 100.037 29.4752C100.145 29.6804 100.321 29.8709 100.565 30.0468C100.81 30.2128 101.142 30.3691 101.563 30.5157C101.993 30.6622 102.531 30.8039 103.176 30.9406C104.388 31.1946 105.429 31.5219 106.3 31.9225C107.18 32.3132 107.854 32.8212 108.324 33.4465C108.793 34.062 109.028 34.8435 109.028 35.7911C109.028 36.4945 108.876 37.1393 108.573 37.7255C108.28 38.3019 107.849 38.805 107.282 39.2348C106.715 39.6549 106.036 39.9822 105.244 40.2167C104.462 40.4511 103.582 40.5684 102.604 40.5684C101.167 40.5684 99.9493 40.3143 98.9521 39.8063C97.9548 39.2886 97.197 38.6291 96.6788 37.828C96.1704 37.0172 95.9162 36.177 95.9162 35.3075H99.3334C99.3725 35.9621 99.5534 36.4848 99.876 36.8755C100.208 37.2565 100.619 37.535 101.108 37.7108C101.607 37.8769 102.12 37.9599 102.648 37.9599C103.283 37.9599 103.816 37.8769 104.246 37.7108C104.677 37.535 105.004 37.3005 105.229 37.0074C105.454 36.7046 105.566 36.3626 105.566 35.9816Z" fill="#1A1A1A"/>
<path d="M119.396 24.4194V26.9985H110.45V24.4194H119.396ZM113.031 20.5361H116.566V35.8935C116.566 36.382 116.634 36.7581 116.771 37.0219C116.918 37.2759 117.118 37.4468 117.372 37.5348C117.627 37.6227 117.925 37.6667 118.267 37.6667C118.511 37.6667 118.746 37.652 118.971 37.6227C119.196 37.5934 119.377 37.5641 119.514 37.5348L119.528 40.2311C119.235 40.319 118.893 40.3972 118.502 40.4656C118.12 40.534 117.68 40.5682 117.182 40.5682C116.37 40.5682 115.652 40.4265 115.026 40.1432C114.4 39.8501 113.911 39.3763 113.559 38.7217C113.207 38.0672 113.031 37.1977 113.031 36.1133V20.5361Z" fill="#1A1A1A"/>
<path d="M136.585 27.8486V30.7648H125.248V27.8486H136.585ZM126.157 18.939V40.2753H122.476V18.939H126.157ZM139.415 18.939V40.2753H135.749V18.939H139.415Z" fill="#1A1A1A"/>
<path d="M142.774 32.5233V32.1862C142.774 31.0432 142.94 29.9832 143.272 29.0063C143.605 28.0196 144.084 27.1648 144.71 26.4419C145.345 25.7092 146.118 25.1425 147.027 24.742C147.946 24.3317 148.982 24.1265 150.136 24.1265C151.299 24.1265 152.336 24.3317 153.245 24.742C154.164 25.1425 154.942 25.7092 155.577 26.4419C156.213 27.1648 156.697 28.0196 157.029 29.0063C157.361 29.9832 157.528 31.0432 157.528 32.1862V32.5233C157.528 33.6663 157.361 34.7263 157.029 35.7032C156.697 36.6801 156.213 37.535 155.577 38.2677C154.942 38.9906 154.169 39.5572 153.26 39.9675C152.351 40.3681 151.319 40.5684 150.165 40.5684C149.002 40.5684 147.961 40.3681 147.041 39.9675C146.132 39.5572 145.36 38.9906 144.724 38.2677C144.089 37.535 143.605 36.6801 143.272 35.7032C142.94 34.7263 142.774 33.6663 142.774 32.5233ZM146.308 32.1862V32.5233C146.308 33.2364 146.382 33.9105 146.528 34.5455C146.675 35.1805 146.905 35.7374 147.217 36.2161C147.53 36.6948 147.931 37.0709 148.42 37.3445C148.909 37.618 149.491 37.7548 150.165 37.7548C150.82 37.7548 151.387 37.618 151.867 37.3445C152.355 37.0709 152.756 36.6948 153.069 36.2161C153.382 35.7374 153.612 35.1805 153.758 34.5455C153.915 33.9105 153.993 33.2364 153.993 32.5233V32.1862C153.993 31.4828 153.915 30.8185 153.758 30.1933C153.612 29.5583 153.377 28.9965 153.055 28.5081C152.742 28.0196 152.341 27.6386 151.852 27.3651C151.373 27.0817 150.801 26.9401 150.136 26.9401C149.471 26.9401 148.894 27.0817 148.405 27.3651C147.926 27.6386 147.53 28.0196 147.217 28.5081C146.905 28.9965 146.675 29.5583 146.528 30.1933C146.382 30.8185 146.308 31.4828 146.308 32.1862Z" fill="#1A1A1A"/>
<path d="M164.025 27.6435V40.2753H160.49V24.4196H163.819L164.025 27.6435ZM163.453 31.7613L162.25 31.7466C162.25 30.6525 162.387 29.6413 162.661 28.7132C162.934 27.7851 163.335 26.9792 163.863 26.2953C164.391 25.6017 165.046 25.0693 165.828 24.698C166.62 24.317 167.535 24.1265 168.571 24.1265C169.295 24.1265 169.954 24.234 170.551 24.4489C171.157 24.6541 171.68 24.9813 172.12 25.4307C172.57 25.8801 172.912 26.4565 173.147 27.1599C173.391 27.8633 173.513 28.7132 173.513 29.7097V40.2753H169.979V30.0174C169.979 29.2457 169.862 28.64 169.627 28.2003C169.402 27.7607 169.075 27.4481 168.644 27.2625C168.224 27.0671 167.72 26.9694 167.134 26.9694C166.469 26.9694 165.902 27.0964 165.433 27.3504C164.973 27.6044 164.597 27.9512 164.303 28.3908C164.01 28.8305 163.795 29.3385 163.658 29.9149C163.521 30.4913 163.453 31.1067 163.453 31.7613ZM173.293 30.8234L171.636 31.1898C171.636 30.2324 171.768 29.3287 172.032 28.4788C172.306 27.6191 172.702 26.8668 173.22 26.222C173.748 25.5675 174.398 25.0546 175.171 24.6834C175.943 24.3121 176.828 24.1265 177.825 24.1265C178.637 24.1265 179.36 24.2389 179.996 24.4636C180.641 24.6785 181.189 25.0204 181.638 25.4893C182.088 25.9583 182.43 26.5689 182.665 27.3211C182.9 28.0636 183.017 28.9624 183.017 30.0174V40.2753H179.468V30.0028C179.468 29.2017 179.35 28.5813 179.116 28.1417C178.891 27.7021 178.568 27.3993 178.148 27.2332C177.727 27.0573 177.224 26.9694 176.637 26.9694C176.09 26.9694 175.606 27.072 175.185 27.2771C174.775 27.4725 174.428 27.751 174.144 28.1124C173.861 28.4641 173.645 28.8695 173.499 29.3287C173.362 29.7879 173.293 30.2861 173.293 30.8234Z" fill="#1A1A1A"/>
<path d="M193.65 40.5684C192.476 40.5684 191.416 40.3779 190.467 39.9968C189.529 39.6061 188.727 39.0639 188.062 38.3702C187.407 37.6766 186.903 36.8609 186.551 35.923C186.199 34.9852 186.023 33.974 186.023 32.8896V32.3035C186.023 31.0628 186.204 29.9393 186.566 28.933C186.928 27.9268 187.431 27.0671 188.077 26.3539C188.722 25.631 189.485 25.079 190.365 24.698C191.244 24.317 192.198 24.1265 193.224 24.1265C194.359 24.1265 195.351 24.317 196.202 24.698C197.052 25.079 197.756 25.6163 198.313 26.31C198.88 26.9938 199.301 27.8096 199.575 28.7572C199.858 29.7048 200 30.7501 200 31.8932V33.4025H187.739V30.8674H196.51V30.589C196.49 29.9539 196.363 29.358 196.128 28.8012C195.903 28.2443 195.556 27.7949 195.087 27.453C194.618 27.1111 193.992 26.9401 193.21 26.9401C192.623 26.9401 192.1 27.0671 191.64 27.3211C191.191 27.5653 190.814 27.9219 190.511 28.3908C190.208 28.8598 189.973 29.4264 189.807 30.0907C189.651 30.7453 189.573 31.4828 189.573 32.3035V32.8896C189.573 33.5833 189.665 34.228 189.851 34.824C190.047 35.4101 190.33 35.923 190.702 36.3626C191.073 36.8023 191.523 37.1491 192.051 37.4031C192.579 37.6473 193.18 37.7694 193.855 37.7694C194.706 37.7694 195.463 37.5985 196.128 37.2565C196.793 36.9146 197.37 36.431 197.859 35.8058L199.721 37.6082C199.379 38.1065 198.934 38.5852 198.387 39.0443C197.839 39.4937 197.169 39.8601 196.378 40.1434C195.595 40.4267 194.686 40.5684 193.65 40.5684Z" fill="#1A1A1A"/>
</g>
</g>
<defs>
<clipPath id="clip0_0_380">
<rect width="200" height="57" fill="white" transform="translate(0 0.889648)"/>
</clipPath>
<clipPath id="clip1_0_380">
<rect width="200" height="57" fill="white" transform="translate(0 0.889648)"/>
</clipPath>
</defs>
</svg>
