<svg width="71" height="71" viewBox="0 0 71 71" fill="none" xmlns="http://www.w3.org/2000/svg">
<rect x="0.226562" y="0.390625" width="70" height="70" rx="35" fill="#1A1A1A" fill-opacity="0.17"/>
<rect x="0.726562" y="0.890625" width="69" height="69" rx="34.5" stroke="white" stroke-opacity="0.1"/>
<rect x="1.22656" y="1.39062" width="68" height="68" rx="34" fill="#1A1A1A" fill-opacity="0.11"/>
<path d="M29.2117 45.2918C29.7281 45.291 30.2351 45.1536 30.6813 44.8936L42.7065 37.9372C43.1533 37.6792 43.5243 37.3082 43.7823 36.8614C44.0402 36.4146 44.1761 35.9077 44.1761 35.3918C44.1761 34.8759 44.0402 34.3691 43.7823 33.9223C43.5243 33.4755 43.1533 33.1044 42.7065 32.8464L30.6813 25.8988C30.2344 25.6437 29.7284 25.5102 29.2139 25.5117C28.6993 25.5133 28.1941 25.6498 27.7488 25.9076C27.3035 26.1655 26.9336 26.5356 26.6761 26.9811C26.4186 27.4266 26.2824 27.9319 26.2813 28.4464V42.3372C26.2801 43.117 26.5877 43.8655 27.1368 44.4192C27.6859 44.9728 28.4319 45.2866 29.2117 45.2918ZM27.8103 28.4464C27.8084 28.2001 27.8723 27.9578 27.9952 27.7443C28.1182 27.5309 28.2958 27.354 28.5099 27.232C28.7226 27.1082 28.9644 27.0429 29.2106 27.0429C29.4567 27.0429 29.6985 27.1082 29.9113 27.232L41.9431 34.1796C42.155 34.3027 42.3308 34.4792 42.4531 34.6915C42.5753 34.9039 42.6397 35.1446 42.6397 35.3896C42.6397 35.6346 42.5753 35.8753 42.4531 36.0877C42.3308 36.3 42.155 36.4766 41.9431 36.5996L29.9113 43.5516C29.6982 43.6744 29.4566 43.7389 29.2107 43.7387C28.9648 43.7385 28.7232 43.6737 28.5104 43.5506C28.2975 43.4276 28.1207 43.2507 27.9978 43.0377C27.8749 42.8247 27.8102 42.5831 27.8103 42.3372V28.4464Z" fill="white"/>
</svg>
