<svg width="61" height="61" viewBox="0 0 61 61" fill="none" xmlns="http://www.w3.org/2000/svg">
<g clip-path="url(#clip0_0_153)">
<path d="M59.6602 43.46L57.8605 41.86V34.86C57.8605 33.66 57.4272 32.6267 56.5607 31.76C55.6942 30.8934 54.6944 30.46 53.5612 30.46C52.4281 30.46 51.4616 30.7934 50.6617 31.46C49.8618 32.1267 49.3286 32.9934 49.062 34.06L47.4622 32.66C46.6624 31.86 45.6625 31.46 44.4627 31.46C43.2629 31.46 42.1965 31.86 41.2633 32.66L29.0653 43.46C28.7987 43.7267 28.6654 44.06 28.6654 44.46C28.6654 44.86 28.7654 45.1934 28.9653 45.46C29.1653 45.7267 29.4652 45.86 29.8652 45.86C30.2651 45.86 30.5984 45.7934 30.865 45.66V55.46C30.865 56.66 31.2649 57.66 32.0648 58.46C32.8647 59.26 33.7979 59.66 34.8643 59.66H53.8612C55.061 59.66 56.0275 59.26 56.7607 58.46C57.4939 57.66 57.8605 56.66 57.8605 55.46V45.66C58.2604 45.7934 58.627 45.86 58.9603 45.86C59.2936 45.86 59.5936 45.6934 59.8602 45.36C60.1268 45.0267 60.2268 44.6934 60.1601 44.36C60.0935 44.0267 59.9268 43.7267 59.6602 43.46ZM46.8623 56.86H42.2631V53.46C42.2631 52.9267 42.4631 52.46 42.863 52.06C43.2629 51.66 43.7295 51.46 44.2628 51.46H44.8627C45.3959 51.46 45.8625 51.66 46.2624 52.06C46.6624 52.46 46.8623 52.9267 46.8623 53.46V56.86ZM55.061 55.46C55.061 55.86 54.961 56.1934 54.761 56.46C54.5611 56.7267 54.2611 56.86 53.8612 56.86H49.6619V53.46C49.6619 52.1267 49.1953 50.9934 48.2621 50.06C47.3289 49.1267 46.1958 48.66 44.8627 48.66H44.2628C42.9297 48.66 41.7965 49.1267 40.8633 50.06C39.9302 50.9934 39.4636 52.1267 39.4636 53.46V56.86H34.8643C34.5977 56.86 34.3311 56.7267 34.0645 56.46C33.7979 56.1934 33.6645 55.86 33.6645 55.46V43.06L43.063 34.86C43.4629 34.46 43.8962 34.26 44.3628 34.26C44.8293 34.26 45.2626 34.46 45.6625 34.86L55.061 43.06V55.46ZM55.061 34.86V39.46L51.8615 36.46V34.86C51.8615 34.46 51.9948 34.0934 52.2614 33.76C52.5281 33.4267 52.8947 33.2267 53.3613 33.16C53.8279 33.0934 54.2278 33.2267 54.5611 33.56C54.8943 33.8934 55.061 34.3267 55.061 34.86ZM44.4627 37.66C43.2629 37.66 42.2631 38.0934 41.4632 38.96C40.6634 39.8267 40.2634 40.8267 40.2634 41.96C40.2634 43.0934 40.6634 44.06 41.4632 44.86C42.2631 45.66 43.2296 46.06 44.3628 46.06C45.4959 46.06 46.4957 45.66 47.3623 44.86C48.2288 44.06 48.662 43.0934 48.662 41.96C48.662 40.8267 48.2288 39.8267 47.3623 38.96C46.4957 38.0934 45.5292 37.66 44.4627 37.66ZM45.6625 41.86C45.6625 42.26 45.5626 42.5934 45.3626 42.86C45.1626 43.1267 44.8627 43.26 44.4627 43.26C44.0628 43.26 43.7295 43.1267 43.4629 42.86C43.1963 42.5934 43.063 42.26 43.063 41.86C43.063 41.46 43.1963 41.1267 43.4629 40.86C43.7295 40.5934 44.0628 40.46 44.4627 40.46C44.8627 40.46 45.1626 40.5934 45.3626 40.86C45.5626 41.1267 45.6625 41.46 45.6625 41.86ZM26.2658 56.66H8.46874C7.26894 56.66 6.20245 56.2267 5.26928 55.36C4.3361 54.4934 3.86951 53.46 3.86951 52.26V7.86003C3.86951 6.66003 4.3361 5.59337 5.26928 4.66003C6.20245 3.7267 7.26894 3.26003 8.46874 3.26003H49.062C50.3951 3.26003 51.4949 3.7267 52.3614 4.66003C53.228 5.59337 53.6612 6.66003 53.6612 7.86003V25.66C53.6612 26.06 53.7945 26.3934 54.0611 26.66C54.3278 26.9267 54.661 27.06 55.061 27.06C55.4609 27.06 55.7942 26.9267 56.0608 26.66C56.3274 26.3934 56.4607 26.06 56.4607 25.66V7.86003C56.4607 5.86003 55.7275 4.1267 54.2611 2.66003C52.7947 1.19337 51.0616 0.460033 49.062 0.460033H8.46874C6.46908 0.460033 4.73603 1.19337 3.26961 2.66003C1.80319 4.1267 1.06998 5.86003 1.06998 7.86003V52.26C1.06998 54.26 1.80319 55.9934 3.26961 57.46C4.73603 58.9267 6.46908 59.66 8.46874 59.66H26.2658C26.6657 59.66 27.0323 59.4934 27.3656 59.16C27.6989 58.8267 27.8655 58.4934 27.8655 58.16C27.8655 57.8267 27.6989 57.4934 27.3656 57.16C27.0323 56.8267 26.6657 56.66 26.2658 56.66ZM43.6629 14.66C43.6629 14.26 43.5296 13.9267 43.2629 13.66C42.9963 13.3934 42.663 13.26 42.2631 13.26H14.4677C14.0678 13.26 13.7345 13.3934 13.4679 13.66C13.2013 13.9267 13.068 14.26 13.068 14.66C13.068 15.06 13.2013 15.3934 13.4679 15.66C13.7345 15.9267 14.0678 16.06 14.4677 16.06H42.2631C42.663 16.06 42.9963 15.9267 43.2629 15.66C43.5296 15.3934 43.6629 15.06 43.6629 14.66ZM36.864 25.46C36.864 25.1934 36.7307 24.8934 36.4641 24.56C36.1975 24.2267 35.8642 24.06 35.4642 24.06H14.4677C14.0678 24.06 13.7345 24.2267 13.4679 24.56C13.2013 24.8934 13.068 25.2267 13.068 25.56C13.068 25.8934 13.2013 26.2267 13.4679 26.56C13.7345 26.8934 14.0678 27.06 14.4677 27.06H35.4642C35.8642 27.06 36.1975 26.8934 36.4641 26.56C36.7307 26.2267 36.864 25.86 36.864 25.46ZM14.4677 35.06C14.0678 35.06 13.7345 35.1934 13.4679 35.46C13.2013 35.7267 13.068 36.06 13.068 36.46C13.068 36.86 13.2013 37.1934 13.4679 37.46C13.7345 37.7267 14.0678 37.86 14.4677 37.86H23.0663C23.3329 37.86 23.6329 37.7267 23.9662 37.46C24.2994 37.1934 24.4661 36.86 24.4661 36.46C24.4661 36.06 24.2994 35.7267 23.9662 35.46C23.6329 35.1934 23.3329 35.06 23.0663 35.06H14.4677Z" fill="#1A1A1A"/>
</g>
<defs>
<clipPath id="clip0_0_153">
<rect width="60.01" height="60" fill="white" transform="matrix(1 0 0 -1 0.659973 60.0601)"/>
</clipPath>
</defs>
</svg>
