<svg width="61" height="61" viewBox="0 0 61 61" fill="none" xmlns="http://www.w3.org/2000/svg">
<path d="M18.79 43.26C18.79 42.7267 18.99 42.26 19.39 41.86C19.79 41.46 20.19 41.26 20.59 41.26H41.39C41.79 41.26 42.19 41.46 42.59 41.86C42.99 42.26 43.19 42.7267 43.19 43.26C43.19 43.7933 42.99 44.2267 42.59 44.56C42.19 44.8933 41.79 45.06 41.39 45.06H20.59C20.19 45.06 19.79 44.8933 19.39 44.56C18.99 44.2267 18.79 43.7933 18.79 43.26ZM38.99 4.66001C36.7233 2.79334 34.0566 1.86001 30.99 1.86001C27.9233 1.86001 25.2566 2.79334 22.99 4.66001L7.98998 16.26C6.38998 17.5933 5.12331 19.1267 4.18998 20.86C3.25665 22.5933 2.78998 24.46 2.78998 26.46V45.26C2.78998 47.5267 3.38998 49.66 4.58998 51.66C5.78998 53.66 7.38998 55.26 9.38998 56.46C11.39 57.66 13.59 58.26 15.99 58.26H45.99C48.39 58.26 50.59 57.66 52.59 56.46C54.59 55.26 56.19 53.66 57.39 51.66C58.59 49.66 59.19 47.5267 59.19 45.26V26.46C59.19 24.46 58.7233 22.5933 57.79 20.86C56.8566 19.1267 55.59 17.5933 53.99 16.26L38.99 4.66001ZM25.19 7.66001C26.9233 6.32668 28.8566 5.66001 30.99 5.66001C33.1233 5.66001 35.0566 6.32668 36.79 7.66001L51.79 19.26C52.8566 20.1933 53.7233 21.2933 54.39 22.56C55.0566 23.8267 55.39 25.1267 55.39 26.46V45.26C55.39 47.7933 54.4566 49.96 52.59 51.76C50.7233 53.56 48.5233 54.46 45.99 54.46H15.99C13.4566 54.46 11.2566 53.56 9.38998 51.76C7.52331 49.96 6.58998 47.7933 6.58998 45.26V26.46C6.58998 25.1267 6.92331 23.8267 7.58998 22.56C8.25665 21.2933 9.12331 20.1933 10.19 19.26L25.19 7.66001Z" fill="#1A1A1A"/>
</svg>
